<svg xmlns="http://www.w3.org/2000/svg" >
    <style>.st3{display:none}.st5{fill:#e8f4f9}.st13,.st14{fill:none;stroke:#333;stroke-miterlimit:10}.st14{stroke-width:.25}.st15{fill:#4d4d4d}.st16{fill:none;stroke:#4d4d4d;stroke-width:2;stroke-miterlimit:10}</style>
    <g id="areas">
        <path class="st5" d="M599.25 195.75v-21.87h-21v24.75h21zM558.25 281.25H558v-54.87h-12.43l-12.18-12.19H370.13V303h233.5v-1.62h-7.5v-15.25h7.5V219.5h-45.38zM558.88 429.5h42.88v101.25h-42.88zM473.25 303.25H558v62.25h-84.75zM495.13 429.5h63.5v101.25h-63.5z" />
        <path class="st5" d="M559.88 196.88h-1.63v22.37h45.38v-23.5h-4.13v3.13H578v-25h-18.12zM545.68 226.13H558v-29.25l-187.87-.1v17.16h163.36zM370.13 303.25h102.88v62.25H370.13z" />
        <path class="st5" d="M307.38 363h31.42l.04.04 20.66 20.83v146.88h21V386.13h55.25v7.5h14.75v-7.5H602v144.62h101.25l.62-334-83.74.13v-32h-60.25v8.75h47v.25h-7.38v21.62h4.38v90.88h-7.5v14.75h7.5v64.62h-234v-24.37h-5v-7.5h-14.75v8.75H305.5v-21.25h-32.37v41.25h34.25z" />
        <path class="st5" d="M273.13 283.63h32.38v37.5h-32.38zM306.13 283.63h-.38v58.75h31.63v-67.25h-31.25z" />
        <path class="st5" d="M306.13 274.88h31.5v67.5h12.25v-8.75h15.25v7.5h4.75v-89.75h-63.75zM306.13 251.13h63.75v-54.35l-63.75-.03zM558.25 303.25h45.38v62.25h-45.38zM359.25 470.75h-51.87v21.63H307V503h52.25zM307 503.25h52.25v27.5H307zM359.25 441.38h-10.37v5h-41.5v24.12h51.87zM285.38 492.38h21.38v38.38h-21.38z" />
        <path class="st5" d="M307.38 419.5h12.5v26.63h-12.5zM307.38 391.38h12.5v27.88h-12.5zM494.88 429.5h-20v-13.12H450.5v-22.5h-15v-7.5h-54.75v144.37h114.13zM320.13 446.13h28.5v-5h10.62V419.5h-39.12z" />
        <path class="st5" d="M475.13 429.25h19.75v-.5h.25v.5h63.5v-.5h.25v.5h42.87v-42.87h-151v29.75h24.38zM348.63 391.38h-28.5v27.87h39.12V399.5h-10.62z" />
        <path class="st5" d="M348.88 399.25h10.37v-15.28l-20.55-20.72h-31.32v27.88h41.5z" />
    </g>
    <g id="walls">
        <path style="fill:none;stroke:#333;stroke-width:4.75;stroke-miterlimit:10" d="M270 365h35v125h-22v43.13h422.63l.62-338.75-83.75.12v-32h-65v32l-253.75-.12v86.87H270" id="walls_x5F_ext_x5F_line" />
        <g id="walls_x5F_int_x5F_line_x5F_thick">
            <path class="st13" d="M359.38 511.25v21.88M359.32 501.25V505M359.38 428.13V495M359.38 417.5v4.38M306.25 363.13h32.5l20.63 20.79v27.33M306.25 419.38h53.13M306.4 470.57h52.46M363.75 251.25H370M322.5 251.25h35M305.63 251.25h10.62M363.75 333.75H365v7.5h5M335 342.5h15v-8.75h1.25M305.63 283.13v59.37h16.87M295.63 321.25h10M270 321.25h13.13" />
            <path class="st13" d="M305 275h32.5v67.5M603.75 204.38v-8.75h-4.37v-21.88M596.25 287.5v-1.25h7.5v-69.37M586.88 365.63h16.87v-64.38h-7.5V300M553.75 365.63h20.63M461.88 365.63h79.37M449.38 365.63h6.25M388.75 365.63h44.38M370 221.25v144.38h6.25M370 196.25V215M558.13 218.13v63.12M558.13 196.25v9.38M576.88 219.38h-18.75M603.75 219.38h-20.62M558.13 226.25h-12.5l-12.19-12.19H370M510 303.13H370M603.75 303.13H522.5M473.13 345v-41.87M473.13 365.63v-14.38M558.13 365.63v-62.5M449.38 393.75h1.25v-7.5h151.25v146.88M380.63 533.75v-147.5h55v7.5h1.25M495 428.75v103.13M558.75 428.75v103.13" />
            <path class="st13" d="M601.88 429.38H475v-13.13h-24.37v-22.5M357.5 399.38h1.25M306.88 391.25h41.87v8.13h2.5M306.88 446.25h41.87v-5h10.63M320 440.63v5.62M320 405.63v28.75M320 391.25v8.13M359.32 503.13h-52.44M358.75 533.13h-51.87v-41.25M606.88 173.75h-47.5M584.38 198.75h-6.25v-25M599.38 195.63v3.12h-6.88" />
        </g>
        <g id="walls_x5F_int_x5F_line_x5F_thin">
            <path class="st14" d="M306.25 363.13h32.5l20.63 20.79v149.21M306.25 419.38h53.13M306.25 470.63h53.13M305.63 251.25H370M305.63 283.13v59.37H350v-8.75h15v7.5h5M270 321.25h35.63" />
            <path class="st14" d="M305 275h32.5v67.5M370 196.25v169.38h233.75v-64.38h-7.5v-15h7.5v-90.62h-4.37v-21.88M558.13 196.25v85M603.75 219.38h-45.62" />
            <path class="st14" d="M558.13 226.25h-12.5l-12.19-12.19H370M603.75 303.13H370M473.13 365.63v-62.5M558.13 365.63v-62.5M380.63 533.75v-147.5h55v7.5h15v-7.5h151.25v146.88M495 428.75v103.13M558.75 428.75v103.13" />
            <path class="st14" d="M601.88 429.38H475v-13.13h-24.37v-22.5M306.88 391.25h41.87v8.13h10.63M306.88 446.25h41.87v-5h10.63M320 391.25v55M359.32 503.13h-52.44M358.75 533.13h-51.87v-41.25M606.88 173.75h-47.5M599.38 195.63v3.12h-21.25v-25" />
        </g>
    </g>
    <g id="mech">
        <path class="st15" d="M575.91 527.7h5.54l2.76-4.8-2.76-4.79h-5.54l-2.77 4.79zM632.26 376h5.53l2.77-4.79-2.77-4.8h-5.53l-2.77 4.8z" />
        <path class="st16" d="M404.38 447.05h211.73M404.38 420.96h211.73M404.38 394.86h211.73" />
        <path style="fill:#ff1d25" d="M613.35 527.7h5.53l2.77-4.8-2.77-4.79h-5.53l-2.77 4.79z" />
        <path style="fill:none;stroke:#ff1d25;stroke-width:2;stroke-miterlimit:10" d="M616.11 371.21V522.9" />
        <path class="st16" d="M578.68 522.9V371.21h53.61" />
    </g>
</svg>