<?xml version="1.0" encoding="utf-8"?>
<!-- Generator: Adobe Illustrator 24.0.0, SVG Export Plug-In . SVG Version: 6.00 Build 0)  -->
<svg version="1.1" xmlns="http://www.w3.org/2000/svg" xmlns:xlink="http://www.w3.org/1999/xlink" x="0px" y="0px"
	 viewBox="0 0 1366 768" style="enable-background:new 0 0 1366 768;" xml:space="preserve">
<style type="text/css">
	.st0{fill:none;}
	.st1{fill:#FF1D25;}
	.st2{fill:#5ECC48;}
	.st3{display:none;}
	.st4{display:inline;fill:#BDC2C9;}
	.st5{fill:#E8F4F9;}
	.st6{fill:none;stroke:#B3B3B3;stroke-width:0.25;stroke-miterlimit:10;}
	.st7{fill:none;stroke:#B3B3B3;stroke-width:0.75;stroke-miterlimit:10;}
	.st8{display:inline;}
	.st9{fill:url(#New_Pattern_2);}
	.st10{fill:#FF0000;}
	.st11{fill:url(#New_Pattern_5);}
	.st12{fill:none;stroke:#333333;stroke-width:4.75;stroke-miterlimit:10;}
	.st13{fill:none;stroke:#333333;stroke-miterlimit:10;}
	.st14{fill:none;stroke:#333333;stroke-width:0.25;stroke-miterlimit:10;}
	.st15{fill:#4D4D4D;}
	.st16{fill:none;stroke:#4D4D4D;stroke-width:2;stroke-miterlimit:10;}
	.st17{fill:none;stroke:#FF1D25;stroke-width:2;stroke-miterlimit:10;}
	.st18{fill:none;stroke:#F7931E;stroke-width:0.5;stroke-miterlimit:10;}
	.st19{fill:#F7931E;}
	.st20{fill:#FFFFFF;}
</style>

<g id="reference" class="st3">
</g>
<g id="bg" class="st3">
	<rect x="208.75" y="93.13" class="st4" width="631.88" height="575"/>
</g>
<g id="areas">
	<g>
		<polygon class="st5" points="599.25,195.75 599.25,195.63 599.25,173.88 578.25,173.88 578.25,198.63 599.25,198.63 		"/>
		<polygon class="st5" points="558.25,281.25 558,281.25 558,226.38 545.57,226.38 533.39,214.19 370.13,214.19 370.13,303 
			603.63,303 603.63,301.38 596.13,301.38 596.13,286.13 603.63,286.13 603.63,219.5 558.25,219.5 		"/>
		<rect x="558.88" y="429.5" class="st5" width="42.88" height="101.25"/>
		<rect x="473.25" y="303.25" class="st5" width="84.75" height="62.25"/>
		<rect x="495.13" y="429.5" class="st5" width="63.5" height="101.25"/>
		<polygon class="st5" points="559.88,196.88 558.25,196.88 558.25,219.25 603.63,219.25 603.63,195.75 599.5,195.75 599.5,198.88 
			578,198.88 578,173.88 559.88,173.88 		"/>
		<polygon class="st5" points="545.68,226.13 558,226.13 558,196.88 370.13,196.78 370.13,213.94 533.49,213.94 		"/>
		<rect x="370.13" y="303.25" class="st5" width="102.88" height="62.25"/>
		<polygon class="st5" points="307.38,363 338.8,363 338.84,363.04 359.5,383.87 359.5,530.75 380.5,530.75 380.5,386.13 
			435.75,386.13 435.75,393.63 450.5,393.63 450.5,386.13 602,386.13 602,530.75 703.25,530.75 703.87,196.75 620.13,196.88 
			620.13,164.88 559.88,164.88 559.88,173.63 606.88,173.63 606.88,173.88 599.5,173.88 599.5,195.5 603.88,195.5 603.88,286.38 
			596.38,286.38 596.38,301.13 603.88,301.13 603.88,365.75 369.88,365.75 369.88,341.38 364.88,341.38 364.88,333.88 
			350.13,333.88 350.13,342.63 305.5,342.63 305.5,321.38 273.13,321.38 273.13,362.63 307.38,362.63 		"/>
		<rect x="273.13" y="283.63" class="st5" width="32.38" height="37.5"/>
		<polygon class="st5" points="306.13,283.63 305.75,283.63 305.75,342.38 337.38,342.38 337.38,275.13 306.13,275.13 		"/>
		<polygon class="st5" points="306.13,274.88 337.63,274.88 337.63,342.38 349.88,342.38 349.88,333.63 365.13,333.63 
			365.13,341.13 369.88,341.13 369.88,251.38 306.13,251.38 		"/>
		<polygon class="st5" points="306.13,251.13 369.88,251.13 369.88,196.78 306.13,196.75 		"/>
		<rect x="558.25" y="303.25" class="st5" width="45.38" height="62.25"/>
		<polygon class="st5" points="359.25,470.75 307.38,470.75 307.38,492.38 307,492.38 307,503 359.25,503 		"/>
		<rect x="307" y="503.25" class="st5" width="52.25" height="27.5"/>
		<polygon class="st5" points="359.25,441.38 348.88,441.38 348.88,446.38 307.38,446.38 307.38,470.5 359.25,470.5 		"/>
		<rect x="285.38" y="492.38" class="st5" width="21.38" height="38.38"/>
		<rect x="307.38" y="419.5" class="st5" width="12.5" height="26.63"/>
		<rect x="307.38" y="391.38" class="st5" width="12.5" height="27.88"/>
		<polygon class="st5" points="494.88,429.5 474.88,429.5 474.88,416.38 450.5,416.38 450.5,393.88 435.5,393.88 435.5,386.38 
			380.75,386.38 380.75,530.75 494.88,530.75 		"/>
		<polygon class="st5" points="320.13,446.13 348.63,446.13 348.63,441.13 359.25,441.13 359.25,419.5 320.13,419.5 		"/>
		<polygon class="st5" points="475.13,429.25 494.88,429.25 494.88,428.75 495.13,428.75 495.13,429.25 558.63,429.25 
			558.63,428.75 558.88,428.75 558.88,429.25 601.75,429.25 601.75,386.38 450.75,386.38 450.75,393.75 450.75,393.88 
			450.75,416.13 475.13,416.13 		"/>
		<polygon class="st5" points="348.63,391.38 320.13,391.38 320.13,419.25 359.25,419.25 359.25,399.5 348.63,399.5 		"/>
		<polygon class="st5" points="348.88,399.25 359.25,399.25 359.25,383.97 338.7,363.25 307.38,363.25 307.38,391.13 348.88,391.13 
					"/>
	</g>
</g>



<g id="walls">
	<g id="walls_x5F_ext_x5F_line">
		<polyline class="st12" points="270,365 305,365 305,490 283,490 283,533.13 705.63,533.13 706.25,194.38 622.5,194.5 622.5,162.5 
			557.5,162.5 557.5,194.5 303.75,194.38 303.75,281.25 270,281.25 		"/>
	</g>
	<g id="walls_x5F_int_x5F_line_x5F_thick">
		<line class="st13" x1="359.38" y1="511.25" x2="359.38" y2="533.13"/>
		<line class="st13" x1="359.32" y1="501.25" x2="359.32" y2="505"/>
		<line class="st13" x1="359.38" y1="428.13" x2="359.38" y2="495"/>
		<line class="st13" x1="359.38" y1="417.5" x2="359.38" y2="421.88"/>
		<polyline class="st13" points="306.25,363.13 338.75,363.13 359.38,383.92 359.38,411.25 		"/>
		<line class="st13" x1="306.25" y1="419.38" x2="359.38" y2="419.38"/>
		<line class="st13" x1="306.4" y1="470.57" x2="358.86" y2="470.57"/>
		<line class="st13" x1="363.75" y1="251.25" x2="370" y2="251.25"/>
		<line class="st13" x1="322.5" y1="251.25" x2="357.5" y2="251.25"/>
		<line class="st13" x1="305.63" y1="251.25" x2="316.25" y2="251.25"/>
		<polyline class="st13" points="363.75,333.75 365,333.75 365,341.25 370,341.25 		"/>
		<polyline class="st13" points="335,342.5 350,342.5 350,333.75 351.25,333.75 		"/>
		<polyline class="st13" points="305.63,283.13 305.63,342.5 322.5,342.5 		"/>
		<line class="st13" x1="295.63" y1="321.25" x2="305.63" y2="321.25"/>
		<line class="st13" x1="270" y1="321.25" x2="283.13" y2="321.25"/>
		<polyline class="st13" points="305,275 337.5,275 337.5,342.5 		"/>
		<polyline class="st13" points="603.75,204.38 603.75,195.63 599.38,195.63 599.38,173.75 		"/>
		<polyline class="st13" points="596.25,287.5 596.25,286.25 603.75,286.25 603.75,216.88 		"/>
		<polyline class="st13" points="586.88,365.63 603.75,365.63 603.75,301.25 596.25,301.25 596.25,300 		"/>
		<line class="st13" x1="553.75" y1="365.63" x2="574.38" y2="365.63"/>
		<line class="st13" x1="461.88" y1="365.63" x2="541.25" y2="365.63"/>
		<line class="st13" x1="449.38" y1="365.63" x2="455.63" y2="365.63"/>
		<line class="st13" x1="388.75" y1="365.63" x2="433.13" y2="365.63"/>
		<polyline class="st13" points="370,221.25 370,365.63 376.25,365.63 		"/>
		<line class="st13" x1="370" y1="196.25" x2="370" y2="215"/>
		<line class="st13" x1="558.13" y1="218.13" x2="558.13" y2="281.25"/>
		<line class="st13" x1="558.13" y1="196.25" x2="558.13" y2="205.63"/>
		<line class="st13" x1="576.88" y1="219.38" x2="558.13" y2="219.38"/>
		<line class="st13" x1="603.75" y1="219.38" x2="583.13" y2="219.38"/>
		<polyline class="st13" points="558.13,226.25 545.63,226.25 533.44,214.06 370,214.06 		"/>
		<line class="st13" x1="510" y1="303.13" x2="370" y2="303.13"/>
		<line class="st13" x1="603.75" y1="303.13" x2="522.5" y2="303.13"/>
		<line class="st13" x1="473.13" y1="345" x2="473.13" y2="303.13"/>
		<line class="st13" x1="473.13" y1="365.63" x2="473.13" y2="351.25"/>
		<line class="st13" x1="558.13" y1="365.63" x2="558.13" y2="303.13"/>
		<polyline class="st13" points="449.38,393.75 450.63,393.75 450.63,386.25 601.88,386.25 601.88,533.13 		"/>
		<polyline class="st13" points="380.63,533.75 380.63,386.25 435.63,386.25 435.63,393.75 436.88,393.75 		"/>
		<line class="st13" x1="495" y1="428.75" x2="495" y2="531.88"/>
		<line class="st13" x1="558.75" y1="428.75" x2="558.75" y2="531.88"/>
		<polyline class="st13" points="601.88,429.38 475,429.38 475,416.25 450.63,416.25 450.63,393.75 		"/>
		<line class="st13" x1="357.5" y1="399.38" x2="358.75" y2="399.38"/>
		<polyline class="st13" points="306.88,391.25 348.75,391.25 348.75,399.38 351.25,399.38 		"/>
		<polyline class="st13" points="306.88,446.25 348.75,446.25 348.75,441.25 359.38,441.25 		"/>
		<line class="st13" x1="320" y1="440.63" x2="320" y2="446.25"/>
		<line class="st13" x1="320" y1="405.63" x2="320" y2="434.38"/>
		<line class="st13" x1="320" y1="391.25" x2="320" y2="399.38"/>
		<line class="st13" x1="359.32" y1="503.13" x2="306.88" y2="503.13"/>
		<polyline class="st13" points="358.75,533.13 306.88,533.13 306.88,491.88 		"/>
		<line class="st13" x1="606.88" y1="173.75" x2="559.38" y2="173.75"/>
		<polyline class="st13" points="584.38,198.75 578.13,198.75 578.13,173.75 		"/>
		<polyline class="st13" points="599.38,195.63 599.38,198.75 592.5,198.75 		"/>
	</g>
	<g id="walls_x5F_int_x5F_line_x5F_thin">
		<polyline class="st14" points="306.25,363.13 338.75,363.13 359.38,383.92 359.38,533.13 		"/>
		<line class="st14" x1="306.25" y1="419.38" x2="359.38" y2="419.38"/>
		<line class="st14" x1="306.25" y1="470.63" x2="359.38" y2="470.63"/>
		<line class="st14" x1="305.63" y1="251.25" x2="370" y2="251.25"/>
		<polyline class="st14" points="305.63,283.13 305.63,342.5 350,342.5 350,333.75 365,333.75 365,341.25 370,341.25 		"/>
		<line class="st14" x1="270" y1="321.25" x2="305.63" y2="321.25"/>
		<polyline class="st14" points="305,275 337.5,275 337.5,342.5 		"/>
		<polyline class="st14" points="370,196.25 370,365.63 603.75,365.63 603.75,301.25 596.25,301.25 596.25,286.25 603.75,286.25 
			603.75,195.63 599.38,195.63 599.38,173.75 		"/>
		<line class="st14" x1="558.13" y1="196.25" x2="558.13" y2="281.25"/>
		<line class="st14" x1="603.75" y1="219.38" x2="558.13" y2="219.38"/>
		<polyline class="st14" points="558.13,226.25 545.63,226.25 533.44,214.06 370,214.06 		"/>
		<line class="st14" x1="603.75" y1="303.13" x2="370" y2="303.13"/>
		<line class="st14" x1="473.13" y1="365.63" x2="473.13" y2="303.13"/>
		<line class="st14" x1="558.13" y1="365.63" x2="558.13" y2="303.13"/>
		<polyline class="st14" points="380.63,533.75 380.63,386.25 435.63,386.25 435.63,393.75 450.63,393.75 450.63,386.25 
			601.88,386.25 601.88,533.13 		"/>
		<line class="st14" x1="495" y1="428.75" x2="495" y2="531.88"/>
		<line class="st14" x1="558.75" y1="428.75" x2="558.75" y2="531.88"/>
		<polyline class="st14" points="601.88,429.38 475,429.38 475,416.25 450.63,416.25 450.63,393.75 		"/>
		<polyline class="st14" points="306.88,391.25 348.75,391.25 348.75,399.38 359.38,399.38 		"/>
		<polyline class="st14" points="306.88,446.25 348.75,446.25 348.75,441.25 359.38,441.25 		"/>
		<line class="st14" x1="320" y1="391.25" x2="320" y2="446.25"/>
		<line class="st14" x1="359.32" y1="503.13" x2="306.88" y2="503.13"/>
		<polyline class="st14" points="358.75,533.13 306.88,533.13 306.88,491.88 		"/>
		<line class="st14" x1="606.88" y1="173.75" x2="559.38" y2="173.75"/>
		<polyline class="st14" points="599.38,195.63 599.38,198.75 578.13,198.75 578.13,173.75 		"/>
	</g>
</g>
<g id="mech">
	<polygon class="st15" points="575.91,527.7 581.45,527.7 584.21,522.9 581.45,518.11 575.91,518.11 573.14,522.9 	"/>
	<polygon class="st15" points="632.26,376 637.79,376 640.56,371.21 637.79,366.41 632.26,366.41 629.49,371.21 	"/>
	<line class="st16" x1="404.38" y1="447.05" x2="616.11" y2="447.05"/>
	<line class="st16" x1="404.38" y1="420.96" x2="616.11" y2="420.96"/>
	<line class="st16" x1="404.38" y1="394.86" x2="616.11" y2="394.86"/>
	<polygon class="st1" points="613.35,527.7 618.88,527.7 621.65,522.9 618.88,518.11 613.35,518.11 610.58,522.9 	"/>
	<polyline class="st17" points="616.11,371.21 616.11,447.05 616.11,522.9 	"/>
	<polyline class="st16" points="578.68,522.9 578.68,371.21 632.29,371.21 	"/>
</g>
</svg>