<?xml version="1.0" encoding="utf-8"?>
<!-- Generator: Adobe Illustrator 24.0.0, SVG Export Plug-In . SVG Version: 6.00 Build 0)  -->
<svg version="1.1" xmlns="http://www.w3.org/2000/svg" xmlns:xlink="http://www.w3.org/1999/xlink" x="0px" y="0px"
	 viewBox="0 0 1366 768" style="enable-background:new 0 0 1366 768;" xml:space="preserve">
<style type="text/css">
	.st0{fill:none;}
	.st1{fill:#FF1D25;}
	.st2{fill:#5ECC48;}
	.st3{display:none;}
	.st4{display:inline;fill:#BDC2C9;}
	.st5{fill:#E8F4F9;}
	.st6{fill:none;stroke:#B3B3B3;stroke-width:0.25;stroke-miterlimit:10;}
	.st7{fill:none;stroke:#B3B3B3;stroke-width:0.75;stroke-miterlimit:10;}
	.st8{display:inline;}
	.st9{fill:url(#New_Pattern_2);}
	.st10{fill:#FF0000;}
	.st11{fill:url(#New_Pattern_5);}
	.st12{fill:none;stroke:#333333;stroke-width:4.75;stroke-miterlimit:10;}
	.st13{fill:none;stroke:#333333;stroke-miterlimit:10;}
	.st14{fill:none;stroke:#333333;stroke-width:0.25;stroke-miterlimit:10;}
	.st15{fill:#4D4D4D;}
	.st16{fill:none;stroke:#4D4D4D;stroke-width:2;stroke-miterlimit:10;}
	.st17{fill:none;stroke:#FF1D25;stroke-width:2;stroke-miterlimit:10;}
	.st18{fill:none;stroke:#F7931E;stroke-width:0.5;stroke-miterlimit:10;}
	.st19{fill:#F7931E;}
	.st20{fill:#FFFFFF;}
</style>
<pattern  width="10" height="10" patternUnits="userSpaceOnUse" id="New_Pattern_2" viewBox="0 -10 10 10" style="overflow:visible;">
	<g>
		<rect y="-10" class="st0" width="10" height="10"/>
		<polygon class="st1" points="0.63,-10 0,-9.37 0,-10 		"/>
		<polygon class="st1" points="5.63,-10 0,-4.37 0,-5.63 4.37,-10 		"/>
		<polygon class="st1" points="10,-10 10,-9.37 0.63,0 0,0 0,-0.63 9.37,-10 		"/>
		<polygon class="st1" points="10,-5.63 10,-4.37 5.63,0 4.37,0 		"/>
		<polygon class="st1" points="10,-0.63 10,0 9.37,0 		"/>
	</g>
</pattern>
<pattern  width="10" height="10" patternUnits="userSpaceOnUse" id="New_Pattern_5" viewBox="0 -10 10 10" style="overflow:visible;">
	<g>
		<rect y="-10" class="st0" width="10" height="10"/>
		<polygon class="st2" points="0,-0.63 0.63,0 0,0 		"/>
		<polygon class="st2" points="0,-5.63 5.63,0 4.37,0 0,-4.37 		"/>
		<polygon class="st2" points="0,-10 0.63,-10 10,-0.63 10,0 9.37,0 0,-9.37 		"/>
		<polygon class="st2" points="4.37,-10 5.63,-10 10,-5.63 10,-4.37 		"/>
		<polygon class="st2" points="9.37,-10 10,-10 10,-9.37 		"/>
	</g>
</pattern>
<g id="reference" class="st3">
</g>
<g id="bg" class="st3">
	<rect x="208.75" y="93.13" class="st4" width="631.88" height="575"/>
</g>
<g id="areas">
	<g>
		<polygon class="st5" points="599.25,195.75 599.25,195.63 599.25,173.88 578.25,173.88 578.25,198.63 599.25,198.63 		"/>
		<polygon class="st5" points="558.25,281.25 558,281.25 558,226.38 545.57,226.38 533.39,214.19 370.13,214.19 370.13,303 
			603.63,303 603.63,301.38 596.13,301.38 596.13,286.13 603.63,286.13 603.63,219.5 558.25,219.5 		"/>
		<rect x="558.88" y="429.5" class="st5" width="42.88" height="101.25"/>
		<rect x="473.25" y="303.25" class="st5" width="84.75" height="62.25"/>
		<rect x="495.13" y="429.5" class="st5" width="63.5" height="101.25"/>
		<polygon class="st5" points="559.88,196.88 558.25,196.88 558.25,219.25 603.63,219.25 603.63,195.75 599.5,195.75 599.5,198.88 
			578,198.88 578,173.88 559.88,173.88 		"/>
		<polygon class="st5" points="545.68,226.13 558,226.13 558,196.88 370.13,196.78 370.13,213.94 533.49,213.94 		"/>
		<rect x="370.13" y="303.25" class="st5" width="102.88" height="62.25"/>
		<polygon class="st5" points="307.38,363 338.8,363 338.84,363.04 359.5,383.87 359.5,530.75 380.5,530.75 380.5,386.13 
			435.75,386.13 435.75,393.63 450.5,393.63 450.5,386.13 602,386.13 602,530.75 703.25,530.75 703.87,196.75 620.13,196.88 
			620.13,164.88 559.88,164.88 559.88,173.63 606.88,173.63 606.88,173.88 599.5,173.88 599.5,195.5 603.88,195.5 603.88,286.38 
			596.38,286.38 596.38,301.13 603.88,301.13 603.88,365.75 369.88,365.75 369.88,341.38 364.88,341.38 364.88,333.88 
			350.13,333.88 350.13,342.63 305.5,342.63 305.5,321.38 273.13,321.38 273.13,362.63 307.38,362.63 		"/>
		<rect x="273.13" y="283.63" class="st5" width="32.38" height="37.5"/>
		<polygon class="st5" points="306.13,283.63 305.75,283.63 305.75,342.38 337.38,342.38 337.38,275.13 306.13,275.13 		"/>
		<polygon class="st5" points="306.13,274.88 337.63,274.88 337.63,342.38 349.88,342.38 349.88,333.63 365.13,333.63 
			365.13,341.13 369.88,341.13 369.88,251.38 306.13,251.38 		"/>
		<polygon class="st5" points="306.13,251.13 369.88,251.13 369.88,196.78 306.13,196.75 		"/>
		<rect x="558.25" y="303.25" class="st5" width="45.38" height="62.25"/>
		<polygon class="st5" points="359.25,470.75 307.38,470.75 307.38,492.38 307,492.38 307,503 359.25,503 		"/>
		<rect x="307" y="503.25" class="st5" width="52.25" height="27.5"/>
		<polygon class="st5" points="359.25,441.38 348.88,441.38 348.88,446.38 307.38,446.38 307.38,470.5 359.25,470.5 		"/>
		<rect x="285.38" y="492.38" class="st5" width="21.38" height="38.38"/>
		<rect x="307.38" y="419.5" class="st5" width="12.5" height="26.63"/>
		<rect x="307.38" y="391.38" class="st5" width="12.5" height="27.88"/>
		<polygon class="st5" points="494.88,429.5 474.88,429.5 474.88,416.38 450.5,416.38 450.5,393.88 435.5,393.88 435.5,386.38 
			380.75,386.38 380.75,530.75 494.88,530.75 		"/>
		<polygon class="st5" points="320.13,446.13 348.63,446.13 348.63,441.13 359.25,441.13 359.25,419.5 320.13,419.5 		"/>
		<polygon class="st5" points="475.13,429.25 494.88,429.25 494.88,428.75 495.13,428.75 495.13,429.25 558.63,429.25 
			558.63,428.75 558.88,428.75 558.88,429.25 601.75,429.25 601.75,386.38 450.75,386.38 450.75,393.75 450.75,393.88 
			450.75,416.13 475.13,416.13 		"/>
		<polygon class="st5" points="348.63,391.38 320.13,391.38 320.13,419.25 359.25,419.25 359.25,399.5 348.63,399.5 		"/>
		<polygon class="st5" points="348.88,399.25 359.25,399.25 359.25,383.97 338.7,363.25 307.38,363.25 307.38,391.13 348.88,391.13 
					"/>
	</g>
</g>
<g id="doors">
	<g>
		<g>
			<path class="st6" d="M329.03,342.5c0-3.14,2.67-5.68,5.97-5.68"/>
			<line class="st7" x1="335" y1="342.5" x2="335" y2="336.25"/>
		</g>
		<g>
			<path class="st6" d="M328.47,342.5c0-3.14-2.67-5.68-5.97-5.68"/>
			<line class="st7" x1="322.5" y1="342.5" x2="322.5" y2="336.25"/>
		</g>
	</g>
	<g>
		<g>
			<path class="st6" d="M357.22,333.75c0,3.14-2.67,5.68-5.97,5.68"/>
			<line class="st7" x1="351.25" y1="333.75" x2="351.25" y2="340"/>
		</g>
		<g>
			<path class="st6" d="M357.78,333.75c0,3.14,2.67,5.68,5.97,5.68"/>
			<line class="st7" x1="363.75" y1="333.75" x2="363.75" y2="340"/>
		</g>
	</g>
	<g>
		<path class="st6" d="M316.25,251.25c0,3.14,2.67,5.68,5.97,5.68"/>
		<line class="st7" x1="322.22" y1="251.25" x2="322.22" y2="257.5"/>
	</g>
	<g>
		<path class="st6" d="M357.5,251.25c0-3.14,2.67-5.68,5.97-5.68"/>
		<line class="st7" x1="363.47" y1="251.25" x2="363.47" y2="245"/>
	</g>
	<g>
		<path class="st6" d="M370,221.25c-3.14,0-5.68-2.67-5.68-5.97"/>
		<line class="st7" x1="370" y1="215.28" x2="363.75" y2="215.28"/>
	</g>
	<g>
		<g>
			<path class="st6" d="M443.4,393.75c0-3.14,2.67-5.68,5.97-5.68"/>
			<line class="st7" x1="449.38" y1="393.75" x2="449.38" y2="387.5"/>
		</g>
		<g>
			<path class="st6" d="M442.85,393.75c0-3.14-2.67-5.68-5.97-5.68"/>
			<line class="st7" x1="436.88" y1="393.75" x2="436.88" y2="387.5"/>
		</g>
	</g>
	<g>
		<g>
			<path class="st6" d="M382.78,365.63c0-3.14,2.67-5.68,5.97-5.68"/>
			<line class="st7" x1="388.75" y1="365.63" x2="388.75" y2="359.38"/>
		</g>
		<g>
			<path class="st6" d="M382.22,365.63c0-3.14-2.67-5.68-5.97-5.68"/>
			<line class="st7" x1="376.25" y1="365.63" x2="376.25" y2="359.38"/>
		</g>
	</g>
	<g>
		<g>
			<path class="st6" d="M440.89,365.63c0,4.08-3.48,7.39-7.77,7.39"/>
			<line class="st7" x1="433.13" y1="365.63" x2="433.13" y2="373.75"/>
		</g>
		<g>
			<path class="st6" d="M441.61,365.63c0,4.08,3.48,7.39,7.77,7.39"/>
			<line class="st7" x1="449.38" y1="365.63" x2="449.38" y2="373.75"/>
		</g>
	</g>
	<g>
		<g>
			<path class="st6" d="M289.1,321.25c0,3.14-2.67,5.68-5.97,5.68"/>
			<line class="st7" x1="283.13" y1="321.25" x2="283.13" y2="327.5"/>
		</g>
		<g>
			<path class="st6" d="M289.65,321.25c0,3.14,2.67,5.68,5.97,5.68"/>
			<line class="st7" x1="295.63" y1="321.25" x2="295.63" y2="327.5"/>
		</g>
	</g>
	<g>
		<g>
			<path class="st6" d="M547.78,365.63c0-3.14,2.67-5.68,5.97-5.68"/>
			<line class="st7" x1="553.75" y1="365.63" x2="553.75" y2="359.38"/>
		</g>
		<g>
			<path class="st6" d="M547.22,365.63c0-3.14-2.67-5.68-5.97-5.68"/>
			<line class="st7" x1="541.25" y1="365.63" x2="541.25" y2="359.38"/>
		</g>
	</g>
	<g>
		<g>
			<path class="st6" d="M580.9,365.63c0-3.14,2.67-5.68,5.97-5.68"/>
			<line class="st7" x1="586.88" y1="365.63" x2="586.88" y2="359.38"/>
		</g>
		<g>
			<path class="st6" d="M580.35,365.63c0-3.14-2.67-5.68-5.97-5.68"/>
			<line class="st7" x1="574.38" y1="365.63" x2="574.38" y2="359.38"/>
		</g>
	</g>
	<g>
		<g>
			<path class="st6" d="M596.25,294.03c3.14,0,5.68,2.67,5.68,5.97"/>
			<line class="st7" x1="596.25" y1="300" x2="602.5" y2="300"/>
		</g>
		<g>
			<path class="st6" d="M596.25,293.47c3.14,0,5.68-2.67,5.68-5.97"/>
			<line class="st7" x1="596.25" y1="287.5" x2="602.5" y2="287.5"/>
		</g>
	</g>
	<g>
		<g>
			<path class="st6" d="M603.75,210.35c-3.14,0-5.68-2.67-5.68-5.97"/>
			<line class="st7" x1="603.75" y1="204.38" x2="597.5" y2="204.38"/>
		</g>
		<g>
			<path class="st6" d="M603.75,210.9c-3.14,0-5.68,2.67-5.68,5.97"/>
			<line class="st7" x1="603.75" y1="216.88" x2="597.5" y2="216.88"/>
		</g>
	</g>
	<g>
		<g>
			<path class="st6" d="M558.13,212.15c3.14,0,5.68,2.67,5.68,5.97"/>
			<line class="st7" x1="558.13" y1="218.13" x2="564.38" y2="218.13"/>
		</g>
		<g>
			<path class="st6" d="M558.13,211.6c3.14,0,5.68-2.67,5.68-5.97"/>
			<line class="st7" x1="558.13" y1="205.63" x2="564.38" y2="205.63"/>
		</g>
	</g>
	<g>
		<g>
			<path class="st6" d="M516.53,303.13c0-3.14,2.67-5.68,5.97-5.68"/>
			<line class="st7" x1="522.5" y1="303.13" x2="522.5" y2="296.88"/>
		</g>
		<g>
			<path class="st6" d="M515.97,303.13c0-3.14-2.67-5.68-5.97-5.68"/>
			<line class="st7" x1="510" y1="303.13" x2="510" y2="296.88"/>
		</g>
	</g>
	<g>
		<path class="st6" d="M461.88,365.63c0-3.14-2.67-5.68-5.97-5.68"/>
		<line class="st7" x1="455.9" y1="365.63" x2="455.9" y2="359.38"/>
	</g>
	<g>
		<path class="st6" d="M473.13,345c-3.14,0-5.68,2.67-5.68,5.97"/>
		<line class="st7" x1="473.13" y1="350.97" x2="466.88" y2="350.97"/>
	</g>
	<g>
		<path class="st6" d="M576.88,219.38c0,3.14,2.67,5.68,5.97,5.68"/>
		<line class="st7" x1="582.85" y1="219.38" x2="582.85" y2="225.63"/>
	</g>
	<g>
		<path class="st6" d="M359.38,411.25c-3.14,0-5.68,2.67-5.68,5.97"/>
		<line class="st7" x1="359.38" y1="417.22" x2="353.13" y2="417.22"/>
	</g>
	<g>
		<path class="st6" d="M320,434.65c-3.14,0-5.68,2.67-5.68,5.97"/>
		<line class="st7" x1="320" y1="440.63" x2="313.75" y2="440.63"/>
	</g>
	<g>
		<path class="st6" d="M359.32,495c-3.14,0-5.68,2.67-5.68,5.97"/>
		<line class="st7" x1="359.32" y1="500.97" x2="353.07" y2="500.97"/>
	</g>
	<g>
		<path class="st6" d="M359.32,510.97c-3.14,0-5.68-2.67-5.68-5.97"/>
		<line class="st7" x1="359.32" y1="505" x2="353.07" y2="505"/>
	</g>
	<g>
		<path class="st6" d="M359.38,427.99c-3.14,0-5.68-2.67-5.68-5.97"/>
		<line class="st7" x1="359.38" y1="422.01" x2="353.13" y2="422.01"/>
	</g>
	<g>
		<path class="st6" d="M320,405.63c-3.14,0-5.68-2.67-5.68-5.97"/>
		<line class="st7" x1="320" y1="399.65" x2="313.75" y2="399.65"/>
	</g>
	<g>
		<path class="st6" d="M584.38,198.75c0,4.08,3.48,7.39,7.77,7.39"/>
		<line class="st7" x1="592.14" y1="198.75" x2="592.14" y2="206.88"/>
	</g>
	<g>
		<path class="st6" d="M351.25,399.38c0-3.14,2.67-5.68,5.97-5.68"/>
		<line class="st7" x1="357.22" y1="399.38" x2="357.22" y2="393.13"/>
	</g>
</g>
<g id="asb_x5F_ceiling">
</g>
<g id="asb_x5F_floor" class="st3">
	<g class="st8">
		<rect x="380.5" y="263.65" class="st9" width="102.63" height="61.97"/>
	</g>
</g>
<g id="asb_x5F_walls" class="st3">
	<g class="st8">
		<path class="st9" d="M316.25,301.88v-66.25h30.63v66.25H316.25z M318,300.13h27.13v-62.75H318V300.13z"/>
		<path class="st10" d="M346.75,235.75v66h-30.38v-66H346.75 M317.88,300.25h0.25H345h0.25V300v-62.5v-0.25H345h-26.88h-0.25v0.25
			V300V300.25 M347,235.5h-30.88V302H347V235.5L347,235.5z M318.13,300v-62.5H345V300H318.13L318.13,300z"/>
	</g>
	<g class="st8">
		<rect x="280.13" y="243.75" class="st9" width="34.88" height="1.75"/>
		<path class="st1" d="M314.88,243.88v1.5h-34.63v-1.5H314.88 M315.13,243.63H280v2h35.13V243.63L315.13,243.63z"/>
	</g>
	<g class="st8">
		<rect x="317.5" y="428.19" class="st9" width="49.23" height="1.75"/>
		<path class="st1" d="M366.61,428.31v1.5h-48.98v-1.5H366.61 M366.86,428.06h-49.48v2h49.48V428.06L366.86,428.06z"/>
	</g>
	<g class="st8">
		<rect x="317.5" y="431.19" class="st9" width="1.75" height="31.32"/>
		<path class="st1" d="M319.13,431.32v31.07h-1.5v-31.07H319.13 M319.38,431.07h-2v31.57h2V431.07L319.38,431.07z"/>
	</g>
</g>
<g id="nd_x5F_walls" class="st3">
	<g class="st8">
		<rect x="319.5" y="431.19" class="st11" width="49.23" height="1.75"/>
		<path class="st2" d="M368.61,431.32v1.5h-48.98v-1.5H368.61 M368.86,431.07h-49.48v2h49.48V431.07L368.86,431.07z"/>
	</g>
	<g class="st8">
		<rect x="366.98" y="401.86" class="st11" width="1.75" height="28.08"/>
		<path class="st2" d="M368.61,401.99v27.83h-1.5v-27.83H368.61 M368.86,401.74h-2v28.33h2V401.74L368.86,401.74z"/>
	</g>
</g>
<g id="nd_x5F_floors" class="st3">
	<g class="st8">
		<rect x="315.63" y="156.25" class="st11" width="64.38" height="55"/>
	</g>
</g>
<g id="nd_x5F_ceiling">
</g>
<g id="walls">
	<g id="walls_x5F_ext_x5F_line">
		<polyline class="st12" points="270,365 305,365 305,490 283,490 283,533.13 705.63,533.13 706.25,194.38 622.5,194.5 622.5,162.5 
			557.5,162.5 557.5,194.5 303.75,194.38 303.75,281.25 270,281.25 		"/>
	</g>
	<g id="walls_x5F_int_x5F_line_x5F_thick">
		<line class="st13" x1="359.38" y1="511.25" x2="359.38" y2="533.13"/>
		<line class="st13" x1="359.32" y1="501.25" x2="359.32" y2="505"/>
		<line class="st13" x1="359.38" y1="428.13" x2="359.38" y2="495"/>
		<line class="st13" x1="359.38" y1="417.5" x2="359.38" y2="421.88"/>
		<polyline class="st13" points="306.25,363.13 338.75,363.13 359.38,383.92 359.38,411.25 		"/>
		<line class="st13" x1="306.25" y1="419.38" x2="359.38" y2="419.38"/>
		<line class="st13" x1="306.4" y1="470.57" x2="358.86" y2="470.57"/>
		<line class="st13" x1="363.75" y1="251.25" x2="370" y2="251.25"/>
		<line class="st13" x1="322.5" y1="251.25" x2="357.5" y2="251.25"/>
		<line class="st13" x1="305.63" y1="251.25" x2="316.25" y2="251.25"/>
		<polyline class="st13" points="363.75,333.75 365,333.75 365,341.25 370,341.25 		"/>
		<polyline class="st13" points="335,342.5 350,342.5 350,333.75 351.25,333.75 		"/>
		<polyline class="st13" points="305.63,283.13 305.63,342.5 322.5,342.5 		"/>
		<line class="st13" x1="295.63" y1="321.25" x2="305.63" y2="321.25"/>
		<line class="st13" x1="270" y1="321.25" x2="283.13" y2="321.25"/>
		<polyline class="st13" points="305,275 337.5,275 337.5,342.5 		"/>
		<polyline class="st13" points="603.75,204.38 603.75,195.63 599.38,195.63 599.38,173.75 		"/>
		<polyline class="st13" points="596.25,287.5 596.25,286.25 603.75,286.25 603.75,216.88 		"/>
		<polyline class="st13" points="586.88,365.63 603.75,365.63 603.75,301.25 596.25,301.25 596.25,300 		"/>
		<line class="st13" x1="553.75" y1="365.63" x2="574.38" y2="365.63"/>
		<line class="st13" x1="461.88" y1="365.63" x2="541.25" y2="365.63"/>
		<line class="st13" x1="449.38" y1="365.63" x2="455.63" y2="365.63"/>
		<line class="st13" x1="388.75" y1="365.63" x2="433.13" y2="365.63"/>
		<polyline class="st13" points="370,221.25 370,365.63 376.25,365.63 		"/>
		<line class="st13" x1="370" y1="196.25" x2="370" y2="215"/>
		<line class="st13" x1="558.13" y1="218.13" x2="558.13" y2="281.25"/>
		<line class="st13" x1="558.13" y1="196.25" x2="558.13" y2="205.63"/>
		<line class="st13" x1="576.88" y1="219.38" x2="558.13" y2="219.38"/>
		<line class="st13" x1="603.75" y1="219.38" x2="583.13" y2="219.38"/>
		<polyline class="st13" points="558.13,226.25 545.63,226.25 533.44,214.06 370,214.06 		"/>
		<line class="st13" x1="510" y1="303.13" x2="370" y2="303.13"/>
		<line class="st13" x1="603.75" y1="303.13" x2="522.5" y2="303.13"/>
		<line class="st13" x1="473.13" y1="345" x2="473.13" y2="303.13"/>
		<line class="st13" x1="473.13" y1="365.63" x2="473.13" y2="351.25"/>
		<line class="st13" x1="558.13" y1="365.63" x2="558.13" y2="303.13"/>
		<polyline class="st13" points="449.38,393.75 450.63,393.75 450.63,386.25 601.88,386.25 601.88,533.13 		"/>
		<polyline class="st13" points="380.63,533.75 380.63,386.25 435.63,386.25 435.63,393.75 436.88,393.75 		"/>
		<line class="st13" x1="495" y1="428.75" x2="495" y2="531.88"/>
		<line class="st13" x1="558.75" y1="428.75" x2="558.75" y2="531.88"/>
		<polyline class="st13" points="601.88,429.38 475,429.38 475,416.25 450.63,416.25 450.63,393.75 		"/>
		<line class="st13" x1="357.5" y1="399.38" x2="358.75" y2="399.38"/>
		<polyline class="st13" points="306.88,391.25 348.75,391.25 348.75,399.38 351.25,399.38 		"/>
		<polyline class="st13" points="306.88,446.25 348.75,446.25 348.75,441.25 359.38,441.25 		"/>
		<line class="st13" x1="320" y1="440.63" x2="320" y2="446.25"/>
		<line class="st13" x1="320" y1="405.63" x2="320" y2="434.38"/>
		<line class="st13" x1="320" y1="391.25" x2="320" y2="399.38"/>
		<line class="st13" x1="359.32" y1="503.13" x2="306.88" y2="503.13"/>
		<polyline class="st13" points="358.75,533.13 306.88,533.13 306.88,491.88 		"/>
		<line class="st13" x1="606.88" y1="173.75" x2="559.38" y2="173.75"/>
		<polyline class="st13" points="584.38,198.75 578.13,198.75 578.13,173.75 		"/>
		<polyline class="st13" points="599.38,195.63 599.38,198.75 592.5,198.75 		"/>
	</g>
	<g id="walls_x5F_int_x5F_line_x5F_thin">
		<polyline class="st14" points="306.25,363.13 338.75,363.13 359.38,383.92 359.38,533.13 		"/>
		<line class="st14" x1="306.25" y1="419.38" x2="359.38" y2="419.38"/>
		<line class="st14" x1="306.25" y1="470.63" x2="359.38" y2="470.63"/>
		<line class="st14" x1="305.63" y1="251.25" x2="370" y2="251.25"/>
		<polyline class="st14" points="305.63,283.13 305.63,342.5 350,342.5 350,333.75 365,333.75 365,341.25 370,341.25 		"/>
		<line class="st14" x1="270" y1="321.25" x2="305.63" y2="321.25"/>
		<polyline class="st14" points="305,275 337.5,275 337.5,342.5 		"/>
		<polyline class="st14" points="370,196.25 370,365.63 603.75,365.63 603.75,301.25 596.25,301.25 596.25,286.25 603.75,286.25 
			603.75,195.63 599.38,195.63 599.38,173.75 		"/>
		<line class="st14" x1="558.13" y1="196.25" x2="558.13" y2="281.25"/>
		<line class="st14" x1="603.75" y1="219.38" x2="558.13" y2="219.38"/>
		<polyline class="st14" points="558.13,226.25 545.63,226.25 533.44,214.06 370,214.06 		"/>
		<line class="st14" x1="603.75" y1="303.13" x2="370" y2="303.13"/>
		<line class="st14" x1="473.13" y1="365.63" x2="473.13" y2="303.13"/>
		<line class="st14" x1="558.13" y1="365.63" x2="558.13" y2="303.13"/>
		<polyline class="st14" points="380.63,533.75 380.63,386.25 435.63,386.25 435.63,393.75 450.63,393.75 450.63,386.25 
			601.88,386.25 601.88,533.13 		"/>
		<line class="st14" x1="495" y1="428.75" x2="495" y2="531.88"/>
		<line class="st14" x1="558.75" y1="428.75" x2="558.75" y2="531.88"/>
		<polyline class="st14" points="601.88,429.38 475,429.38 475,416.25 450.63,416.25 450.63,393.75 		"/>
		<polyline class="st14" points="306.88,391.25 348.75,391.25 348.75,399.38 359.38,399.38 		"/>
		<polyline class="st14" points="306.88,446.25 348.75,446.25 348.75,441.25 359.38,441.25 		"/>
		<line class="st14" x1="320" y1="391.25" x2="320" y2="446.25"/>
		<line class="st14" x1="359.32" y1="503.13" x2="306.88" y2="503.13"/>
		<polyline class="st14" points="358.75,533.13 306.88,533.13 306.88,491.88 		"/>
		<line class="st14" x1="606.88" y1="173.75" x2="559.38" y2="173.75"/>
		<polyline class="st14" points="599.38,195.63 599.38,198.75 578.13,198.75 578.13,173.75 		"/>
	</g>
</g>
<g id="mech">
	<polygon class="st15" points="575.91,527.7 581.45,527.7 584.21,522.9 581.45,518.11 575.91,518.11 573.14,522.9 	"/>
	<polygon class="st15" points="632.26,376 637.79,376 640.56,371.21 637.79,366.41 632.26,366.41 629.49,371.21 	"/>
	<line class="st16" x1="404.38" y1="447.05" x2="616.11" y2="447.05"/>
	<line class="st16" x1="404.38" y1="420.96" x2="616.11" y2="420.96"/>
	<line class="st16" x1="404.38" y1="394.86" x2="616.11" y2="394.86"/>
	<polygon class="st1" points="613.35,527.7 618.88,527.7 621.65,522.9 618.88,518.11 613.35,518.11 610.58,522.9 	"/>
	<polyline class="st17" points="616.11,371.21 616.11,447.05 616.11,522.9 	"/>
	<polyline class="st16" points="578.68,522.9 578.68,371.21 632.29,371.21 	"/>
</g>
<g id="asb_x5F_samples">
	<line class="st18" x1="437.81" y1="491.39" x2="437.81" y2="565.56"/>
	<line class="st18" x1="664.18" y1="225.33" x2="736.39" y2="225.33"/>
	<path class="st19" d="M361.31,137.19h-8.63c-2.29,0-4.16-1.87-4.16-4.16v0c0-2.29,1.87-4.16,4.16-4.16h8.63
		c2.29,0,4.16,1.87,4.16,4.16v0C365.48,135.31,363.6,137.19,361.31,137.19z"/>
	<line class="st18" x1="357" y1="133.3" x2="357" y2="207.47"/>
	<g>
		<g>
			<path class="st20" d="M352.31,134.41v-0.8h-0.99v-0.23l0.97-1.86h0.34v1.81h0.32v0.28h-0.32v0.8H352.31z M352.31,133.34v-0.82
				c0-0.2,0.01-0.38,0.03-0.57h-0.02c-0.1,0.23-0.16,0.37-0.25,0.55l-0.41,0.83v0.01H352.31z"/>
			<path class="st20" d="M354.14,133.12v0.26h-1v-0.26H354.14z"/>
			<path class="st20" d="M355.93,132.96c0,1.05-0.34,1.48-0.78,1.48c-0.46,0-0.74-0.53-0.74-1.47c0-0.97,0.3-1.48,0.79-1.48
				C355.67,131.49,355.93,132.05,355.93,132.96z M354.76,132.97c0,0.7,0.12,1.18,0.41,1.18c0.28,0,0.4-0.49,0.4-1.18
				c0-0.68-0.11-1.18-0.4-1.18C354.88,131.79,354.76,132.27,354.76,132.97z"/>
			<path class="st20" d="M356.91,131.87L356.91,131.87l-0.51,0.28l-0.07-0.27l0.63-0.36h0.29v2.89h-0.35V131.87z"/>
			<path class="st20" d="M358.02,134.04c0.09,0.06,0.25,0.12,0.43,0.12c0.31,0,0.52-0.22,0.52-0.58c0-0.38-0.25-0.6-0.6-0.6h-0.08
				v-0.26h0.07c0.21,0,0.54-0.16,0.54-0.51c0-0.29-0.16-0.44-0.39-0.44c-0.15,0-0.28,0.07-0.37,0.14l-0.08-0.26
				c0.11-0.08,0.31-0.17,0.54-0.17c0.42,0,0.66,0.29,0.66,0.66c0,0.29-0.16,0.54-0.44,0.68v0.01c0.27,0.07,0.52,0.3,0.52,0.76
				c0,0.47-0.31,0.85-0.86,0.85c-0.19,0-0.4-0.05-0.52-0.13L358.02,134.04z"/>
			<path class="st20" d="M360.72,133.12v0.26h-1v-0.26H360.72z"/>
			<path class="st20" d="M361.14,131.46c0.15-0.04,0.32-0.06,0.52-0.06c0.28,0,0.52,0.06,0.68,0.21c0.13,0.12,0.2,0.3,0.2,0.51
				c0,0.3-0.17,0.55-0.48,0.66v0.01c0.36,0.09,0.57,0.37,0.57,0.76c0,0.25-0.08,0.45-0.22,0.59c-0.18,0.19-0.46,0.27-0.82,0.27
				c-0.23,0-0.37-0.01-0.46-0.03V131.46z M361.49,132.69h0.16c0.29,0,0.54-0.22,0.54-0.53c0-0.28-0.13-0.49-0.51-0.49
				c-0.08,0-0.15,0.01-0.19,0.02V132.69z M361.49,134.14c0.04,0.01,0.1,0.02,0.18,0.02c0.37,0,0.6-0.21,0.6-0.59
				c0-0.41-0.3-0.61-0.63-0.61h-0.15V134.14z"/>
		</g>
	</g>
	<path class="st19" d="M231.91,298.9h-7.38c-2.29,0-4.16-1.87-4.16-4.16l0,0c0-2.29,1.87-4.16,4.16-4.16h7.38
		c2.29,0,4.16,1.87,4.16,4.16l0,0C236.07,297.02,234.2,298.9,231.91,298.9z"/>
	<line class="st18" x1="236.07" y1="295.01" x2="308.28" y2="295.01"/>
	<g>
		<g>
			<path class="st20" d="M224.1,294.67c0,1.05-0.34,1.48-0.78,1.48c-0.46,0-0.74-0.53-0.74-1.47c0-0.97,0.3-1.48,0.79-1.48
				C223.85,293.2,224.1,293.76,224.1,294.67z M222.94,294.68c0,0.7,0.12,1.18,0.41,1.18c0.28,0,0.4-0.49,0.4-1.18
				c0-0.68-0.11-1.18-0.4-1.18C223.06,293.5,222.93,293.99,222.94,294.68z"/>
			<path class="st20" d="M225.37,294.83v0.26h-1v-0.26H225.37z"/>
			<path class="st20" d="M226.37,293.58L226.37,293.58l-0.51,0.28l-0.07-0.27l0.63-0.36h0.29v2.89h-0.35V293.58z"/>
			<path class="st20" d="M227.42,296.12v-0.22l0.25-0.33c0.36-0.48,0.78-1.02,0.78-1.56c0-0.32-0.14-0.52-0.42-0.52
				c-0.22,0-0.36,0.11-0.43,0.16l-0.09-0.26c0.1-0.08,0.31-0.2,0.58-0.2c0.5,0,0.71,0.35,0.71,0.79c0,0.54-0.37,1.07-0.74,1.56
				l-0.2,0.26v0.01h0.99v0.3H227.42z"/>
			<path class="st20" d="M229.24,295.75c0.09,0.06,0.25,0.12,0.43,0.12c0.31,0,0.52-0.22,0.52-0.58c0-0.38-0.25-0.6-0.6-0.6h-0.08
				v-0.26h0.07c0.21,0,0.54-0.16,0.54-0.51c0-0.29-0.16-0.44-0.39-0.44c-0.15,0-0.28,0.07-0.37,0.14l-0.08-0.26
				c0.11-0.08,0.31-0.17,0.54-0.17c0.42,0,0.66,0.29,0.66,0.66c0,0.29-0.16,0.54-0.44,0.68v0.01c0.27,0.07,0.52,0.3,0.52,0.76
				c0,0.47-0.31,0.85-0.86,0.85c-0.19,0-0.4-0.05-0.52-0.13L229.24,295.75z"/>
			<path class="st20" d="M231.94,294.83v0.26h-1v-0.26H231.94z"/>
			<path class="st20" d="M232.36,293.17c0.15-0.04,0.32-0.06,0.52-0.06c0.28,0,0.52,0.06,0.68,0.21c0.13,0.12,0.2,0.3,0.2,0.51
				c0,0.3-0.17,0.55-0.48,0.66v0.01c0.36,0.09,0.57,0.37,0.57,0.76c0,0.25-0.08,0.45-0.22,0.59c-0.18,0.19-0.46,0.27-0.82,0.27
				c-0.23,0-0.37-0.01-0.46-0.03V293.17z M232.71,294.4h0.16c0.29,0,0.54-0.22,0.54-0.53c0-0.28-0.13-0.49-0.51-0.49
				c-0.08,0-0.15,0.01-0.19,0.02V294.4z M232.71,295.85c0.04,0.01,0.1,0.02,0.18,0.02c0.37,0,0.6-0.21,0.6-0.59
				c0-0.41-0.3-0.61-0.63-0.61h-0.15V295.85z"/>
		</g>
	</g>
	<path class="st19" d="M484,137.19h-8.63c-2.29,0-4.16-1.87-4.16-4.16v0c0-2.29,1.87-4.16,4.16-4.16H484c2.29,0,4.16,1.87,4.16,4.16
		v0C488.17,135.31,486.29,137.19,484,137.19z"/>
	<line class="st18" x1="479.69" y1="134.41" x2="479.69" y2="225.56"/>
	<g>
		<g>
			<path class="st20" d="M475,134.41v-0.8H474v-0.23l0.97-1.86h0.34v1.81h0.32v0.28h-0.32v0.8H475z M475,133.34v-0.82
				c0-0.2,0.01-0.38,0.03-0.57H475c-0.1,0.23-0.16,0.37-0.25,0.55l-0.41,0.83v0.01H475z"/>
			<path class="st20" d="M476.83,133.12v0.26h-1v-0.26H476.83z"/>
			<path class="st20" d="M478.61,132.96c0,1.05-0.34,1.48-0.78,1.48c-0.46,0-0.74-0.53-0.74-1.47c0-0.97,0.3-1.48,0.79-1.48
				C478.36,131.49,478.61,132.05,478.61,132.96z M477.45,132.97c0,0.7,0.12,1.18,0.41,1.18c0.28,0,0.4-0.49,0.4-1.18
				c0-0.68-0.11-1.18-0.4-1.18C477.57,131.79,477.44,132.27,477.45,132.97z"/>
			<path class="st20" d="M479.6,131.87L479.6,131.87l-0.51,0.28l-0.07-0.27l0.63-0.36h0.29v2.89h-0.35V131.87z"/>
			<path class="st20" d="M480.71,134.04c0.09,0.06,0.25,0.12,0.43,0.12c0.31,0,0.52-0.22,0.52-0.58c0-0.38-0.25-0.6-0.6-0.6h-0.08
				v-0.26h0.07c0.21,0,0.54-0.16,0.54-0.51c0-0.29-0.16-0.44-0.39-0.44c-0.15,0-0.28,0.07-0.37,0.14l-0.08-0.26
				c0.11-0.08,0.31-0.17,0.54-0.17c0.42,0,0.66,0.29,0.66,0.66c0,0.29-0.16,0.54-0.44,0.68v0.01c0.27,0.07,0.52,0.3,0.52,0.76
				c0,0.47-0.31,0.85-0.86,0.85c-0.19,0-0.4-0.05-0.52-0.13L480.71,134.04z"/>
			<path class="st20" d="M483.41,133.12v0.26h-1v-0.26H483.41z"/>
			<path class="st20" d="M483.82,131.46c0.15-0.04,0.32-0.06,0.52-0.06c0.28,0,0.52,0.06,0.68,0.21c0.13,0.12,0.2,0.3,0.2,0.51
				c0,0.3-0.17,0.55-0.48,0.66v0.01c0.36,0.09,0.57,0.37,0.57,0.76c0,0.25-0.08,0.45-0.22,0.59c-0.18,0.19-0.46,0.27-0.82,0.27
				c-0.23,0-0.37-0.01-0.46-0.03V131.46z M484.17,132.69h0.16c0.29,0,0.54-0.22,0.54-0.53c0-0.28-0.13-0.49-0.51-0.49
				c-0.08,0-0.15,0.01-0.19,0.02V132.69z M484.17,134.14c0.04,0.01,0.1,0.02,0.18,0.02c0.37,0,0.6-0.21,0.6-0.59
				c0-0.41-0.3-0.61-0.63-0.61h-0.15V134.14z"/>
		</g>
	</g>
	<path class="st19" d="M742.89,229.22h-7.38c-2.29,0-4.16-1.87-4.16-4.16v0c0-2.29,1.87-4.16,4.16-4.16h7.38
		c2.29,0,4.16,1.87,4.16,4.16v0C747.05,227.35,745.18,229.22,742.89,229.22z"/>
	<g>
		<g>
			<path class="st20" d="M735.08,225c0,1.05-0.34,1.48-0.78,1.48c-0.46,0-0.74-0.53-0.74-1.47c0-0.97,0.3-1.48,0.79-1.48
				C734.82,223.52,735.08,224.08,735.08,225z M733.91,225c0,0.7,0.12,1.18,0.42,1.18c0.28,0,0.4-0.49,0.4-1.18
				c0-0.68-0.11-1.18-0.4-1.18C734.04,223.82,733.91,224.31,733.91,225z"/>
			<path class="st20" d="M736.34,225.15v0.26h-1v-0.26H736.34z"/>
			<path class="st20" d="M737.34,223.91L737.34,223.91l-0.51,0.28l-0.07-0.27l0.63-0.36h0.29v2.89h-0.35V223.91z"/>
			<path class="st20" d="M738.39,226.45v-0.22l0.25-0.33c0.36-0.48,0.78-1.02,0.78-1.56c0-0.32-0.14-0.52-0.42-0.52
				c-0.22,0-0.36,0.11-0.43,0.16l-0.09-0.26c0.1-0.08,0.31-0.2,0.58-0.2c0.5,0,0.71,0.35,0.71,0.79c0,0.54-0.37,1.07-0.74,1.56
				l-0.2,0.26v0.01h0.99v0.3H738.39z"/>
			<path class="st20" d="M740.22,226.08c0.09,0.06,0.25,0.12,0.43,0.12c0.31,0,0.52-0.22,0.52-0.58c0-0.38-0.25-0.6-0.6-0.6h-0.08
				v-0.26h0.07c0.21,0,0.54-0.16,0.54-0.51c0-0.29-0.16-0.44-0.39-0.44c-0.15,0-0.28,0.07-0.37,0.14l-0.08-0.26
				c0.11-0.08,0.31-0.17,0.54-0.17c0.42,0,0.66,0.29,0.66,0.66c0,0.29-0.16,0.54-0.44,0.68v0.01c0.27,0.07,0.52,0.3,0.52,0.76
				c0,0.47-0.32,0.85-0.86,0.85c-0.19,0-0.4-0.05-0.52-0.13L740.22,226.08z"/>
			<path class="st20" d="M742.92,225.15v0.26h-1v-0.26H742.92z"/>
			<path class="st20" d="M743.34,223.5c0.15-0.04,0.32-0.06,0.52-0.06c0.28,0,0.52,0.06,0.68,0.21c0.13,0.12,0.2,0.3,0.2,0.51
				c0,0.3-0.17,0.55-0.48,0.66v0.01c0.36,0.09,0.57,0.37,0.57,0.76c0,0.25-0.08,0.45-0.22,0.59c-0.18,0.19-0.46,0.27-0.82,0.27
				c-0.23,0-0.37-0.01-0.46-0.03V223.5z M743.69,224.72h0.16c0.29,0,0.54-0.22,0.54-0.53c0-0.28-0.13-0.49-0.51-0.49
				c-0.08,0-0.15,0.01-0.19,0.02V224.72z M743.69,226.17c0.04,0.01,0.1,0.02,0.18,0.02c0.37,0,0.61-0.21,0.61-0.59
				c0-0.41-0.3-0.61-0.63-0.61h-0.16V226.17z"/>
		</g>
	</g>
	<path class="st19" d="M442.13,569.72h-8.63c-2.29,0-4.16-1.87-4.16-4.16l0,0c0-2.29,1.87-4.16,4.16-4.16h8.63
		c2.29,0,4.16,1.87,4.16,4.16l0,0C446.29,567.85,444.42,569.72,442.13,569.72z"/>
	<g>
		<g>
			<path class="st20" d="M433.12,566.95v-0.8h-0.99v-0.23l0.97-1.86h0.34v1.81h0.32v0.28h-0.32v0.8H433.12z M433.12,565.87v-0.82
				c0-0.2,0.01-0.38,0.03-0.57h-0.02c-0.1,0.23-0.16,0.37-0.25,0.55l-0.41,0.83v0.01H433.12z"/>
			<path class="st20" d="M434.95,565.66v0.26h-1v-0.26H434.95z"/>
			<path class="st20" d="M436.74,565.5c0,1.05-0.34,1.48-0.78,1.48c-0.46,0-0.74-0.53-0.74-1.47c0-0.97,0.3-1.48,0.79-1.48
				C436.48,564.03,436.74,564.58,436.74,565.5z M435.57,565.5c0,0.7,0.12,1.18,0.41,1.18c0.28,0,0.4-0.49,0.4-1.18
				c0-0.68-0.11-1.18-0.4-1.18C435.7,564.32,435.57,564.81,435.57,565.5z"/>
			<path class="st20" d="M437.72,564.41L437.72,564.41l-0.51,0.28l-0.07-0.27l0.63-0.36h0.29v2.89h-0.35V564.41z"/>
			<path class="st20" d="M438.83,566.58c0.09,0.06,0.25,0.12,0.43,0.12c0.31,0,0.52-0.22,0.52-0.58c0-0.38-0.25-0.6-0.6-0.6h-0.08
				v-0.26h0.07c0.21,0,0.54-0.16,0.54-0.51c0-0.29-0.16-0.44-0.39-0.44c-0.15,0-0.28,0.07-0.37,0.14l-0.08-0.26
				c0.11-0.08,0.31-0.17,0.54-0.17c0.42,0,0.66,0.29,0.66,0.66c0,0.29-0.16,0.54-0.44,0.68v0.01c0.27,0.07,0.52,0.3,0.52,0.76
				c0,0.47-0.31,0.85-0.86,0.85c-0.19,0-0.4-0.05-0.52-0.13L438.83,566.58z"/>
			<path class="st20" d="M441.53,565.66v0.26h-1v-0.26H441.53z"/>
			<path class="st20" d="M441.95,564c0.15-0.04,0.32-0.06,0.52-0.06c0.28,0,0.52,0.06,0.68,0.21c0.13,0.12,0.2,0.3,0.2,0.51
				c0,0.3-0.17,0.55-0.48,0.66v0.01c0.36,0.09,0.57,0.37,0.57,0.76c0,0.25-0.08,0.45-0.22,0.59c-0.18,0.19-0.46,0.27-0.82,0.27
				c-0.23,0-0.37-0.01-0.46-0.03V564z M442.3,565.23h0.16c0.29,0,0.54-0.22,0.54-0.53c0-0.28-0.13-0.49-0.51-0.49
				c-0.08,0-0.15,0.01-0.19,0.02V565.23z M442.3,566.68c0.04,0.01,0.1,0.02,0.18,0.02c0.37,0,0.6-0.21,0.6-0.59
				c0-0.41-0.3-0.61-0.63-0.61h-0.15V566.68z"/>
		</g>
	</g>
</g>
<g id="labels">
	<g>
		<g>
			<path d="M451.28,255.56c0.33-0.07,0.79-0.12,1.17-0.12c0.7,0,1.14,0.15,1.45,0.45c0.23,0.22,0.38,0.58,0.38,0.96
				c0,0.72-0.43,1.19-1.06,1.4v0.02c0.43,0.14,0.71,0.55,0.83,1.15c0.18,0.84,0.29,1.24,0.4,1.45h-0.4
				c-0.09-0.16-0.2-0.63-0.34-1.31c-0.17-0.78-0.5-1.13-1.21-1.16h-0.84v2.47h-0.38V255.56z M451.66,258.09h0.86
				c0.83,0,1.37-0.47,1.37-1.18c0-0.83-0.61-1.16-1.45-1.16c-0.37,0-0.64,0.04-0.78,0.07V258.09z"/>
			<path d="M456.55,256.06h-0.02l-0.85,0.5l-0.09-0.3l0.99-0.58h0.35v5.2h-0.37V256.06z"/>
			<path d="M459.08,260.31c0.19,0.13,0.63,0.33,1.12,0.33c1.06,0,1.32-0.74,1.31-1.2c-0.01-0.86-0.76-1.22-1.53-1.22h-0.33v-0.32
				H460c0.58,0,1.31-0.33,1.31-1.05c0-0.48-0.27-0.93-1.01-0.93c-0.4,0-0.78,0.18-1.01,0.36l-0.15-0.28
				c0.25-0.2,0.72-0.41,1.21-0.41c0.98,0,1.35,0.62,1.35,1.21c0,0.53-0.34,1-0.97,1.24v0.02c0.65,0.13,1.17,0.62,1.17,1.37
				c0,0.78-0.55,1.54-1.76,1.54c-0.53,0-1-0.19-1.23-0.35L459.08,260.31z"/>
			<path d="M465.03,260.87v-1.53h-2.48v-0.26l2.53-3.41h0.31v3.35h0.8v0.32h-0.8v1.53H465.03z M465.03,259.02v-2.1
				c0-0.25,0-0.49,0.02-0.72l-0.03-0.01c-0.16,0.29-0.28,0.47-0.4,0.66l-1.62,2.16v0.02H465.03z"/>
		</g>
	</g>
	<g>
		<g>
			<path d="M347.07,289.99c0.33-0.07,0.79-0.12,1.17-0.12c0.7,0,1.14,0.15,1.45,0.45c0.23,0.22,0.38,0.58,0.38,0.96
				c0,0.72-0.43,1.19-1.06,1.4v0.02c0.43,0.14,0.71,0.55,0.83,1.15c0.18,0.84,0.29,1.24,0.4,1.45h-0.4
				c-0.09-0.16-0.2-0.63-0.34-1.31c-0.17-0.78-0.5-1.13-1.21-1.16h-0.84v2.47h-0.38V289.99z M347.45,292.53h0.86
				c0.83,0,1.37-0.47,1.37-1.18c0-0.83-0.61-1.16-1.45-1.16c-0.37,0-0.64,0.04-0.78,0.07V292.53z"/>
			<path d="M352.34,290.5h-0.02l-0.85,0.5l-0.09-0.3l0.99-0.58h0.35v5.2h-0.37V290.5z"/>
			<path d="M354.87,294.74c0.19,0.13,0.63,0.33,1.12,0.33c1.06,0,1.32-0.74,1.31-1.2c-0.01-0.86-0.76-1.22-1.53-1.22h-0.33v-0.32
				h0.34c0.58,0,1.31-0.33,1.31-1.05c0-0.48-0.27-0.93-1.01-0.93c-0.4,0-0.78,0.18-1.01,0.36l-0.15-0.28
				c0.25-0.2,0.72-0.41,1.21-0.41c0.98,0,1.35,0.62,1.35,1.21c0,0.53-0.34,1-0.97,1.24v0.02c0.65,0.13,1.17,0.62,1.17,1.37
				c0,0.78-0.55,1.54-1.76,1.54c-0.53,0-1-0.19-1.23-0.35L354.87,294.74z"/>
			<path d="M358.77,294.74c0.19,0.13,0.63,0.33,1.12,0.33c1.06,0,1.32-0.74,1.32-1.2c-0.01-0.86-0.76-1.22-1.53-1.22h-0.33v-0.32
				h0.34c0.58,0,1.31-0.33,1.31-1.05c0-0.48-0.27-0.93-1.01-0.93c-0.4,0-0.78,0.18-1.01,0.36l-0.15-0.28
				c0.25-0.2,0.72-0.41,1.21-0.41c0.98,0,1.35,0.62,1.35,1.21c0,0.53-0.34,1-0.97,1.24v0.02c0.65,0.13,1.17,0.62,1.17,1.37
				c0,0.78-0.55,1.54-1.76,1.54c-0.53,0-1-0.19-1.23-0.35L358.77,294.74z"/>
		</g>
	</g>
	<g>
		<g>
			<path d="M314.4,306.09c0.33-0.07,0.79-0.12,1.17-0.12c0.7,0,1.14,0.15,1.45,0.45c0.23,0.22,0.38,0.58,0.38,0.96
				c0,0.72-0.43,1.19-1.06,1.4v0.02c0.43,0.14,0.71,0.55,0.83,1.15c0.18,0.84,0.29,1.24,0.4,1.45h-0.4
				c-0.09-0.16-0.2-0.63-0.34-1.31c-0.17-0.78-0.5-1.13-1.21-1.16h-0.84v2.47h-0.38V306.09z M314.78,308.62h0.86
				c0.83,0,1.37-0.47,1.37-1.18c0-0.83-0.61-1.16-1.45-1.16c-0.37,0-0.64,0.04-0.78,0.07V308.62z"/>
			<path d="M319.68,306.59h-0.02l-0.85,0.5l-0.09-0.3l0.99-0.58h0.35v5.2h-0.37V306.59z"/>
			<path d="M322.21,310.83c0.19,0.13,0.63,0.33,1.12,0.33c1.06,0,1.32-0.74,1.31-1.2c-0.01-0.86-0.76-1.22-1.53-1.22h-0.33v-0.32
				h0.34c0.58,0,1.31-0.33,1.31-1.05c0-0.48-0.27-0.93-1.01-0.93c-0.4,0-0.78,0.18-1.01,0.36l-0.15-0.28
				c0.25-0.2,0.72-0.41,1.21-0.41c0.98,0,1.35,0.62,1.35,1.21c0,0.53-0.34,1-0.97,1.24v0.02c0.65,0.13,1.17,0.62,1.17,1.37
				c0,0.78-0.55,1.54-1.76,1.54c-0.53,0-1-0.19-1.23-0.35L322.21,310.83z"/>
			<path d="M329.13,306.2v0.28l-2.34,4.92h-0.37l2.32-4.86v-0.02h-2.64v-0.32H329.13z"/>
		</g>
	</g>
	<g>
		<g>
			<path d="M510.65,330.94c0.33-0.07,0.79-0.12,1.17-0.12c0.7,0,1.14,0.15,1.45,0.45c0.23,0.22,0.38,0.58,0.38,0.96
				c0,0.72-0.43,1.19-1.06,1.4v0.02c0.43,0.14,0.71,0.55,0.83,1.15c0.18,0.84,0.29,1.24,0.4,1.45h-0.4
				c-0.09-0.16-0.2-0.63-0.34-1.31c-0.17-0.78-0.5-1.13-1.21-1.16h-0.84v2.47h-0.38V330.94z M511.03,333.47h0.86
				c0.83,0,1.37-0.47,1.37-1.18c0-0.83-0.61-1.16-1.45-1.16c-0.37,0-0.64,0.04-0.78,0.07V333.47z"/>
			<path d="M515.93,331.44h-0.02l-0.85,0.5l-0.09-0.3l0.99-0.58h0.35v5.2h-0.37V331.44z"/>
			<path d="M518.46,335.68c0.19,0.13,0.63,0.33,1.12,0.33c1.06,0,1.32-0.74,1.31-1.2c-0.01-0.86-0.76-1.22-1.53-1.22h-0.33v-0.32
				h0.34c0.58,0,1.31-0.33,1.31-1.05c0-0.48-0.27-0.93-1.01-0.93c-0.4,0-0.78,0.18-1.01,0.36l-0.15-0.28
				c0.25-0.2,0.72-0.41,1.21-0.41c0.98,0,1.35,0.62,1.35,1.21c0,0.53-0.34,1-0.97,1.24v0.02c0.65,0.13,1.17,0.62,1.17,1.37
				c0,0.78-0.55,1.54-1.76,1.54c-0.53,0-1-0.19-1.23-0.35L518.46,335.68z"/>
			<path d="M523.73,331.44h-0.02l-0.85,0.5l-0.09-0.3l0.99-0.58h0.35v5.2h-0.37V331.44z"/>
		</g>
	</g>
	<g>
		<g>
			<path d="M574.05,330.94c0.33-0.07,0.79-0.12,1.17-0.12c0.7,0,1.14,0.15,1.45,0.45c0.23,0.22,0.38,0.58,0.38,0.96
				c0,0.72-0.43,1.19-1.06,1.4v0.02c0.43,0.14,0.71,0.55,0.83,1.15c0.18,0.84,0.29,1.24,0.4,1.45h-0.4
				c-0.09-0.16-0.2-0.63-0.34-1.31c-0.17-0.78-0.5-1.13-1.21-1.16h-0.84v2.47h-0.38V330.94z M574.43,333.47h0.86
				c0.83,0,1.37-0.47,1.37-1.18c0-0.83-0.61-1.16-1.45-1.16c-0.37,0-0.64,0.04-0.78,0.07V333.47z"/>
			<path d="M579.33,331.44h-0.02l-0.85,0.5l-0.09-0.3l0.99-0.58h0.35v5.2h-0.37V331.44z"/>
			<path d="M581.86,335.68c0.19,0.13,0.63,0.33,1.12,0.33c1.06,0,1.32-0.74,1.31-1.2c-0.01-0.86-0.76-1.22-1.53-1.22h-0.33v-0.32
				h0.34c0.58,0,1.31-0.33,1.31-1.05c0-0.48-0.27-0.93-1.01-0.93c-0.4,0-0.78,0.18-1.01,0.36l-0.15-0.28
				c0.25-0.2,0.72-0.41,1.21-0.41c0.98,0,1.35,0.62,1.35,1.21c0,0.53-0.34,1-0.97,1.24v0.02c0.65,0.13,1.17,0.62,1.17,1.37
				c0,0.78-0.55,1.54-1.76,1.54c-0.53,0-1-0.19-1.23-0.35L581.86,335.68z"/>
			<path d="M588.84,333.58c0,1.86-0.67,2.76-1.71,2.76c-0.81,0-1.56-0.79-1.59-2.66c0-1.89,0.83-2.71,1.71-2.71
				C588.17,330.96,588.84,331.78,588.84,333.58z M585.95,333.68c0,1.45,0.5,2.34,1.24,2.34c0.87,0,1.26-0.99,1.26-2.4
				c0-1.36-0.37-2.34-1.25-2.34C586.48,331.28,585.95,332.15,585.95,333.68z"/>
		</g>
	</g>
	<g>
		<g>
			<path d="M318.92,375.62c0.33-0.07,0.79-0.12,1.17-0.12c0.7,0,1.14,0.15,1.45,0.45c0.23,0.22,0.38,0.58,0.38,0.96
				c0,0.72-0.43,1.19-1.06,1.4v0.02c0.43,0.14,0.71,0.55,0.83,1.15c0.18,0.84,0.29,1.24,0.4,1.45h-0.4
				c-0.09-0.16-0.2-0.63-0.34-1.31c-0.17-0.78-0.5-1.13-1.21-1.16h-0.84v2.47h-0.38V375.62z M319.3,378.16h0.86
				c0.83,0,1.37-0.47,1.37-1.18c0-0.83-0.61-1.16-1.45-1.16c-0.37,0-0.64,0.04-0.78,0.07V378.16z"/>
			<path d="M324.2,376.13h-0.02l-0.85,0.5l-0.09-0.3l0.99-0.58h0.35v5.2h-0.37V376.13z"/>
			<path d="M329.34,376c-0.15,0-0.35,0.01-0.57,0.05c-1.12,0.23-1.76,1.2-1.87,2.22h0.02c0.24-0.38,0.72-0.73,1.35-0.73
				c0.96,0,1.55,0.7,1.55,1.67c0,0.91-0.56,1.81-1.62,1.81c-0.94,0-1.69-0.76-1.69-2.18c0-1.05,0.37-1.85,0.85-2.36
				c0.37-0.4,0.89-0.66,1.45-0.77c0.2-0.04,0.39-0.06,0.52-0.06L329.34,376z M329.42,379.25c0-0.91-0.53-1.37-1.25-1.37
				c-0.49,0-0.96,0.3-1.2,0.75c-0.05,0.09-0.09,0.19-0.09,0.31c0,1.05,0.48,1.77,1.33,1.77
				C328.93,380.7,329.42,380.13,329.42,379.25z"/>
			<path d="M330.63,380.37c0.19,0.13,0.63,0.33,1.12,0.33c1.06,0,1.32-0.74,1.32-1.2c-0.01-0.86-0.76-1.22-1.53-1.22h-0.33v-0.32
				h0.34c0.58,0,1.31-0.33,1.31-1.05c0-0.48-0.27-0.93-1.01-0.93c-0.4,0-0.78,0.18-1.01,0.36l-0.15-0.28
				c0.25-0.2,0.72-0.41,1.21-0.41c0.98,0,1.35,0.62,1.35,1.21c0,0.53-0.34,1-0.97,1.24v0.02c0.65,0.13,1.17,0.62,1.17,1.37
				c0,0.78-0.55,1.54-1.76,1.54c-0.53,0-1-0.19-1.23-0.35L330.63,380.37z"/>
		</g>
	</g>
	<g>
		<g>
			<path d="M329.71,404.51c0.33-0.07,0.79-0.12,1.17-0.12c0.7,0,1.14,0.15,1.45,0.45c0.23,0.22,0.38,0.58,0.38,0.96
				c0,0.72-0.43,1.19-1.06,1.4v0.02c0.43,0.14,0.71,0.55,0.83,1.15c0.18,0.84,0.29,1.24,0.4,1.45h-0.4
				c-0.09-0.16-0.2-0.63-0.34-1.31c-0.17-0.78-0.5-1.13-1.21-1.16h-0.84v2.47h-0.38V404.51z M330.09,407.05h0.86
				c0.83,0,1.37-0.47,1.37-1.18c0-0.83-0.61-1.16-1.45-1.16c-0.37,0-0.64,0.04-0.78,0.07V407.05z"/>
			<path d="M334.99,405.02h-0.02l-0.85,0.5l-0.09-0.3l0.99-0.58h0.35v5.2h-0.37V405.02z"/>
			<path d="M340.13,404.89c-0.15,0-0.35,0.01-0.57,0.05c-1.12,0.23-1.76,1.2-1.87,2.22h0.02c0.24-0.38,0.72-0.73,1.35-0.73
				c0.96,0,1.55,0.7,1.55,1.67c0,0.91-0.56,1.81-1.62,1.81c-0.94,0-1.69-0.76-1.69-2.18c0-1.05,0.37-1.86,0.85-2.36
				c0.37-0.4,0.89-0.66,1.45-0.77c0.2-0.04,0.39-0.06,0.52-0.06L340.13,404.89z M340.22,408.14c0-0.91-0.53-1.37-1.25-1.37
				c-0.49,0-0.96,0.3-1.2,0.75c-0.05,0.09-0.09,0.19-0.09,0.31c0,1.04,0.48,1.77,1.33,1.77
				C339.72,409.59,340.22,409.02,340.22,408.14z"/>
			<path d="M343.47,409.83v-1.53h-2.48v-0.26l2.53-3.41h0.31v3.35h0.8v0.32h-0.8v1.53H343.47z M343.47,407.98v-2.1
				c0-0.25,0-0.49,0.02-0.72l-0.03-0.01c-0.16,0.29-0.28,0.47-0.4,0.66l-1.62,2.16v0.02H343.47z"/>
		</g>
	</g>
	<g>
		<g>
			<path d="M329.71,429.06c0.33-0.07,0.79-0.12,1.17-0.12c0.7,0,1.14,0.15,1.45,0.45c0.23,0.22,0.38,0.58,0.38,0.96
				c0,0.72-0.43,1.19-1.06,1.4v0.02c0.43,0.14,0.71,0.55,0.83,1.15c0.18,0.84,0.29,1.24,0.4,1.45h-0.4
				c-0.09-0.16-0.2-0.63-0.34-1.31c-0.17-0.78-0.5-1.13-1.21-1.16h-0.84v2.47h-0.38V429.06z M330.09,431.6h0.86
				c0.83,0,1.37-0.47,1.37-1.17c0-0.83-0.61-1.16-1.45-1.16c-0.37,0-0.64,0.04-0.78,0.07V431.6z"/>
			<path d="M334.99,429.57h-0.02l-0.85,0.5l-0.09-0.3l0.99-0.58h0.35v5.2h-0.37V429.57z"/>
			<path d="M340.13,429.44c-0.15,0-0.35,0.01-0.57,0.05c-1.12,0.23-1.76,1.2-1.87,2.22h0.02c0.24-0.38,0.72-0.73,1.35-0.73
				c0.96,0,1.55,0.7,1.55,1.67c0,0.91-0.56,1.81-1.62,1.81c-0.94,0-1.69-0.76-1.69-2.18c0-1.05,0.37-1.85,0.85-2.36
				c0.37-0.4,0.89-0.66,1.45-0.77c0.2-0.04,0.39-0.06,0.52-0.06L340.13,429.44z M340.22,432.69c0-0.91-0.53-1.37-1.25-1.37
				c-0.49,0-0.96,0.3-1.2,0.75c-0.05,0.09-0.09,0.19-0.09,0.31c0,1.05,0.48,1.77,1.33,1.77
				C339.72,434.14,340.22,433.56,340.22,432.69z"/>
			<path d="M344.16,429.51h-1.95l-0.25,1.67c0.12-0.02,0.24-0.04,0.47-0.04c0.35,0,0.67,0.07,0.97,0.22
				c0.41,0.2,0.81,0.67,0.81,1.35c0,1.04-0.79,1.74-1.75,1.74c-0.53,0-0.98-0.17-1.2-0.34l0.15-0.3c0.2,0.14,0.6,0.31,1.08,0.31
				c0.75,0,1.35-0.56,1.34-1.34c-0.01-0.75-0.47-1.32-1.51-1.32c-0.31,0-0.56,0.03-0.74,0.06l0.34-2.35h2.25V429.51z"/>
		</g>
	</g>
	<g>
		<g>
			<path d="M427.84,461.12c0.33-0.07,0.79-0.12,1.17-0.12c0.7,0,1.14,0.15,1.45,0.45c0.23,0.22,0.38,0.58,0.38,0.96
				c0,0.72-0.43,1.19-1.06,1.4v0.02c0.43,0.14,0.71,0.55,0.83,1.15c0.18,0.84,0.29,1.24,0.4,1.45h-0.4
				c-0.09-0.16-0.2-0.63-0.34-1.31c-0.17-0.78-0.5-1.13-1.21-1.16h-0.84v2.47h-0.38V461.12z M428.22,463.66h0.86
				c0.83,0,1.37-0.47,1.37-1.17c0-0.83-0.61-1.16-1.45-1.16c-0.37,0-0.64,0.04-0.78,0.07V463.66z"/>
			<path d="M433.11,461.63h-0.02l-0.85,0.5l-0.09-0.3l0.99-0.58h0.35v5.2h-0.37V461.63z"/>
			<path d="M435.46,465.14c0-0.67,0.41-1.16,1.09-1.45l0-0.03c-0.63-0.27-0.88-0.73-0.88-1.18c0-0.78,0.64-1.33,1.48-1.33
				c0.87,0,1.38,0.58,1.38,1.24c0,0.44-0.21,0.93-0.92,1.26v0.03c0.73,0.29,1.1,0.77,1.1,1.37c0,0.89-0.76,1.47-1.63,1.47
				C436.14,466.53,435.46,465.94,435.46,465.14z M438.32,465.11c0-0.74-0.5-1.06-1.34-1.3c-0.73,0.21-1.13,0.69-1.13,1.25
				c-0.03,0.62,0.43,1.14,1.23,1.14C437.84,466.21,438.32,465.75,438.32,465.11z M436.04,462.43c-0.01,0.63,0.44,0.94,1.15,1.12
				c0.55-0.19,0.95-0.55,0.95-1.12c0-0.47-0.29-0.96-1.03-0.96C436.42,461.46,436.04,461.91,436.04,462.43z"/>
			<path d="M439.36,465.14c0-0.67,0.41-1.16,1.09-1.45l0-0.03c-0.63-0.27-0.88-0.73-0.88-1.18c0-0.78,0.64-1.33,1.48-1.33
				c0.87,0,1.38,0.58,1.38,1.24c0,0.44-0.21,0.93-0.92,1.26v0.03c0.73,0.29,1.1,0.77,1.1,1.37c0,0.89-0.76,1.47-1.63,1.47
				C440.05,466.53,439.36,465.94,439.36,465.14z M442.22,465.11c0-0.74-0.5-1.06-1.34-1.3c-0.73,0.21-1.13,0.69-1.13,1.25
				c-0.03,0.62,0.43,1.14,1.23,1.14C441.74,466.21,442.22,465.75,442.22,465.11z M439.94,462.43c-0.01,0.63,0.44,0.94,1.15,1.12
				c0.55-0.19,0.95-0.55,0.95-1.12c0-0.47-0.29-0.96-1.03-0.96C440.32,461.46,439.94,461.91,439.94,462.43z"/>
		</g>
	</g>
	<g>
		<g>
			<path d="M522.14,473.12c0.33-0.07,0.79-0.12,1.17-0.12c0.7,0,1.14,0.15,1.45,0.45c0.23,0.22,0.38,0.58,0.38,0.96
				c0,0.72-0.43,1.19-1.06,1.4v0.02c0.43,0.14,0.71,0.55,0.83,1.15c0.18,0.84,0.29,1.24,0.4,1.45h-0.4
				c-0.09-0.16-0.2-0.63-0.34-1.31c-0.17-0.78-0.5-1.13-1.21-1.16h-0.84v2.47h-0.38V473.12z M522.52,475.66h0.86
				c0.83,0,1.37-0.47,1.37-1.18c0-0.83-0.61-1.16-1.45-1.16c-0.37,0-0.64,0.04-0.78,0.07V475.66z"/>
			<path d="M527.41,473.63h-0.02l-0.85,0.5l-0.09-0.3l0.99-0.58h0.35v5.2h-0.37V473.63z"/>
			<path d="M529.75,477.14c0-0.67,0.41-1.16,1.09-1.45l0-0.03c-0.63-0.27-0.88-0.73-0.88-1.18c0-0.78,0.64-1.33,1.48-1.33
				c0.87,0,1.38,0.58,1.38,1.24c0,0.44-0.21,0.93-0.92,1.25v0.03c0.73,0.29,1.1,0.77,1.1,1.37c0,0.89-0.76,1.47-1.63,1.47
				C530.44,478.53,529.75,477.94,529.75,477.14z M532.62,477.11c0-0.74-0.5-1.06-1.34-1.3c-0.73,0.21-1.13,0.69-1.13,1.26
				c-0.03,0.62,0.43,1.14,1.23,1.14C532.14,478.21,532.62,477.75,532.62,477.11z M530.34,474.43c-0.01,0.63,0.44,0.94,1.15,1.12
				c0.55-0.19,0.95-0.55,0.95-1.12c0-0.47-0.29-0.97-1.03-0.97C530.72,473.46,530.34,473.91,530.34,474.43z"/>
			<path d="M534.14,478.18c0.15,0.01,0.35,0,0.59-0.04c0.43-0.07,0.82-0.27,1.13-0.61c0.34-0.37,0.6-0.9,0.7-1.64l-0.02,0.01
				c-0.33,0.42-0.79,0.67-1.34,0.67c-0.97,0-1.48-0.76-1.48-1.58c0-0.95,0.65-1.83,1.67-1.83c0.89,0,1.56,0.76,1.56,2.17
				c0,1.17-0.41,1.98-0.89,2.46c-0.34,0.35-0.81,0.59-1.22,0.67c-0.28,0.05-0.52,0.07-0.7,0.07V478.18z M534.09,474.96
				c0,0.77,0.48,1.27,1.17,1.27c0.55,0,1.01-0.28,1.24-0.67c0.03-0.06,0.07-0.13,0.07-0.23c0-1.1-0.41-1.85-1.25-1.85
				C534.59,473.47,534.09,474.1,534.09,474.96z"/>
		</g>
	</g>
	<g>
		<g>
			<path d="M522.14,404.51c0.33-0.07,0.79-0.12,1.17-0.12c0.7,0,1.14,0.15,1.45,0.45c0.23,0.22,0.38,0.58,0.38,0.96
				c0,0.72-0.43,1.19-1.06,1.4v0.02c0.43,0.14,0.71,0.55,0.83,1.15c0.18,0.84,0.29,1.24,0.4,1.45h-0.4
				c-0.09-0.16-0.2-0.63-0.34-1.31c-0.17-0.78-0.5-1.13-1.21-1.16h-0.84v2.47h-0.38V404.51z M522.52,407.05h0.86
				c0.83,0,1.37-0.47,1.37-1.18c0-0.83-0.61-1.16-1.45-1.16c-0.37,0-0.64,0.04-0.78,0.07V407.05z"/>
			<path d="M527.41,405.02h-0.02l-0.85,0.5l-0.09-0.3l0.99-0.58h0.35v5.2h-0.37V405.02z"/>
			<path d="M529.75,408.54c0-0.67,0.41-1.16,1.09-1.45l0-0.03c-0.63-0.27-0.88-0.73-0.88-1.18c0-0.78,0.64-1.33,1.48-1.33
				c0.87,0,1.38,0.58,1.38,1.24c0,0.44-0.21,0.93-0.92,1.26v0.03c0.73,0.29,1.1,0.77,1.1,1.37c0,0.89-0.76,1.47-1.63,1.47
				C530.44,409.92,529.75,409.33,529.75,408.54z M532.62,408.51c0-0.74-0.5-1.06-1.34-1.3c-0.73,0.21-1.13,0.69-1.13,1.25
				c-0.03,0.62,0.43,1.14,1.23,1.14C532.14,409.6,532.62,409.14,532.62,408.51z M530.34,405.82c-0.01,0.63,0.44,0.94,1.15,1.12
				c0.55-0.19,0.95-0.55,0.95-1.12c0-0.47-0.29-0.97-1.03-0.97C530.72,404.85,530.34,405.3,530.34,405.82z"/>
			<path d="M536.87,404.63v0.28l-2.34,4.92h-0.37l2.32-4.86v-0.02h-2.64v-0.32H536.87z"/>
		</g>
	</g>
	<g>
		<g>
			<path d="M575.03,473.12c0.33-0.07,0.79-0.12,1.17-0.12c0.7,0,1.14,0.15,1.45,0.45c0.23,0.22,0.38,0.58,0.38,0.96
				c0,0.72-0.43,1.19-1.06,1.4v0.02c0.43,0.14,0.71,0.55,0.83,1.15c0.18,0.84,0.29,1.24,0.4,1.45h-0.4
				c-0.09-0.16-0.2-0.63-0.34-1.31c-0.17-0.78-0.5-1.13-1.21-1.16h-0.84v2.47h-0.38V473.12z M575.41,475.66h0.86
				c0.83,0,1.37-0.47,1.37-1.18c0-0.83-0.61-1.16-1.45-1.16c-0.37,0-0.64,0.04-0.78,0.07V475.66z"/>
			<path d="M580.3,473.63h-0.02l-0.85,0.5l-0.09-0.3l0.99-0.58h0.35v5.2h-0.37V473.63z"/>
			<path d="M582.64,477.14c0-0.67,0.41-1.16,1.09-1.45l0-0.03c-0.63-0.27-0.88-0.73-0.88-1.18c0-0.78,0.64-1.33,1.48-1.33
				c0.87,0,1.38,0.58,1.38,1.24c0,0.44-0.21,0.93-0.92,1.25v0.03c0.73,0.29,1.1,0.77,1.1,1.37c0,0.89-0.76,1.47-1.63,1.47
				C583.33,478.53,582.64,477.94,582.64,477.14z M585.5,477.11c0-0.74-0.5-1.06-1.34-1.3c-0.73,0.21-1.13,0.69-1.13,1.26
				c-0.03,0.62,0.43,1.14,1.23,1.14C585.02,478.21,585.5,477.75,585.5,477.11z M583.22,474.43c-0.01,0.63,0.44,0.94,1.15,1.12
				c0.55-0.19,0.95-0.55,0.95-1.12c0-0.47-0.29-0.97-1.03-0.97C583.6,473.46,583.22,473.91,583.22,474.43z"/>
			<path d="M589.35,473.5c-0.15,0-0.35,0.01-0.57,0.05c-1.12,0.23-1.76,1.2-1.87,2.22h0.02c0.24-0.38,0.72-0.73,1.35-0.73
				c0.96,0,1.55,0.7,1.55,1.67c0,0.91-0.56,1.81-1.62,1.81c-0.94,0-1.69-0.76-1.69-2.18c0-1.05,0.37-1.86,0.85-2.36
				c0.37-0.4,0.89-0.66,1.45-0.77c0.2-0.04,0.39-0.06,0.52-0.06L589.35,473.5z M589.43,476.75c0-0.91-0.53-1.37-1.25-1.37
				c-0.49,0-0.96,0.3-1.2,0.75c-0.05,0.09-0.09,0.19-0.09,0.31c0,1.04,0.48,1.77,1.33,1.77
				C588.94,478.2,589.43,477.63,589.43,476.75z"/>
		</g>
	</g>
	<g>
		<g>
			<path d="M329.13,218.58c0.33-0.07,0.79-0.12,1.17-0.12c0.7,0,1.14,0.15,1.45,0.45c0.23,0.22,0.38,0.58,0.38,0.96
				c0,0.72-0.43,1.19-1.06,1.4v0.02c0.43,0.14,0.71,0.55,0.83,1.15c0.18,0.84,0.29,1.24,0.4,1.45h-0.4
				c-0.09-0.16-0.2-0.63-0.34-1.31c-0.17-0.78-0.5-1.13-1.21-1.16h-0.84v2.47h-0.38V218.58z M329.51,221.12h0.86
				c0.83,0,1.37-0.47,1.37-1.18c0-0.83-0.61-1.16-1.45-1.16c-0.37,0-0.64,0.04-0.78,0.07V221.12z"/>
			<path d="M334.4,219.09h-0.02l-0.85,0.5l-0.09-0.3l0.99-0.58h0.35v5.2h-0.37V219.09z"/>
			<path d="M336.93,223.33c0.19,0.13,0.63,0.33,1.12,0.33c1.06,0,1.32-0.74,1.31-1.2c-0.01-0.86-0.76-1.22-1.53-1.22h-0.33v-0.32
				h0.34c0.58,0,1.31-0.33,1.31-1.05c0-0.48-0.27-0.93-1.01-0.93c-0.4,0-0.78,0.18-1.01,0.36l-0.15-0.28
				c0.25-0.2,0.72-0.41,1.21-0.41c0.98,0,1.35,0.62,1.35,1.21c0,0.53-0.34,1-0.97,1.24v0.02c0.65,0.13,1.17,0.62,1.17,1.37
				c0,0.78-0.55,1.54-1.76,1.54c-0.53,0-1-0.19-1.23-0.35L336.93,223.33z"/>
			<path d="M340.65,222.6c0-0.67,0.41-1.16,1.09-1.45l0-0.03c-0.63-0.27-0.88-0.73-0.88-1.18c0-0.78,0.64-1.33,1.48-1.33
				c0.87,0,1.38,0.58,1.38,1.24c0,0.44-0.21,0.93-0.92,1.26v0.03c0.73,0.29,1.1,0.77,1.1,1.37c0,0.89-0.76,1.47-1.63,1.47
				C341.33,223.99,340.65,223.4,340.65,222.6z M343.51,222.58c0-0.74-0.5-1.06-1.34-1.3c-0.73,0.21-1.13,0.69-1.13,1.26
				c-0.03,0.62,0.43,1.14,1.23,1.14C343.03,223.67,343.51,223.21,343.51,222.58z M341.23,219.89c-0.01,0.63,0.44,0.94,1.15,1.12
				c0.55-0.19,0.95-0.55,0.95-1.12c0-0.47-0.29-0.97-1.03-0.97C341.61,218.92,341.23,219.37,341.23,219.89z"/>
		</g>
	</g>
	<g>
		<g>
			<path d="M451.28,201.82c0.33-0.07,0.79-0.12,1.17-0.12c0.7,0,1.14,0.15,1.45,0.45c0.23,0.22,0.38,0.58,0.38,0.96
				c0,0.72-0.43,1.19-1.06,1.4v0.02c0.43,0.14,0.71,0.55,0.83,1.15c0.18,0.84,0.29,1.24,0.4,1.45h-0.4
				c-0.09-0.16-0.2-0.63-0.34-1.31c-0.17-0.78-0.5-1.13-1.21-1.16h-0.84v2.47h-0.38V201.82z M451.66,204.35h0.86
				c0.83,0,1.37-0.47,1.37-1.18c0-0.83-0.61-1.16-1.45-1.16c-0.37,0-0.64,0.04-0.78,0.07V204.35z"/>
			<path d="M456.55,202.32h-0.02l-0.85,0.5l-0.09-0.3l0.99-0.58h0.35v5.2h-0.37V202.32z"/>
			<path d="M459.08,206.56c0.19,0.13,0.63,0.33,1.12,0.33c1.06,0,1.32-0.74,1.31-1.2c-0.01-0.86-0.76-1.22-1.53-1.22h-0.33v-0.32
				H460c0.58,0,1.3-0.33,1.3-1.05c0-0.48-0.27-0.93-1-0.93c-0.4,0-0.78,0.18-1.01,0.36l-0.15-0.28c0.25-0.2,0.72-0.41,1.21-0.41
				c0.98,0,1.35,0.62,1.35,1.21c0,0.53-0.34,1-0.97,1.24v0.02c0.65,0.13,1.17,0.62,1.17,1.37c0,0.78-0.55,1.54-1.76,1.54
				c-0.53,0-1-0.19-1.22-0.35L459.08,206.56z"/>
			<path d="M463.28,206.87c0.15,0.01,0.35,0,0.58-0.04c0.43-0.07,0.82-0.27,1.13-0.61c0.34-0.37,0.6-0.9,0.7-1.65l-0.02,0.01
				c-0.33,0.42-0.79,0.67-1.34,0.67c-0.97,0-1.48-0.76-1.48-1.58c0-0.95,0.65-1.83,1.67-1.83c0.89,0,1.56,0.76,1.56,2.17
				c0,1.18-0.41,1.98-0.89,2.46c-0.34,0.35-0.81,0.59-1.22,0.67c-0.28,0.05-0.52,0.07-0.7,0.07V206.87z M463.23,203.65
				c0,0.77,0.48,1.27,1.17,1.27c0.55,0,1.01-0.28,1.24-0.67c0.03-0.06,0.07-0.13,0.07-0.23c0-1.1-0.41-1.85-1.25-1.85
				C463.73,202.17,463.23,202.79,463.23,203.65z"/>
		</g>
	</g>
	<g>
		<g>
			<path d="M411.59,330.63c0.33-0.07,0.79-0.12,1.17-0.12c0.7,0,1.14,0.15,1.45,0.45c0.23,0.22,0.38,0.58,0.38,0.96
				c0,0.72-0.43,1.19-1.06,1.4v0.02c0.43,0.14,0.71,0.55,0.83,1.15c0.18,0.84,0.29,1.24,0.4,1.45h-0.4
				c-0.09-0.16-0.2-0.63-0.34-1.31c-0.17-0.78-0.5-1.13-1.21-1.16h-0.84v2.47h-0.38V330.63z M411.97,333.16h0.86
				c0.83,0,1.37-0.47,1.37-1.18c0-0.83-0.61-1.16-1.45-1.16c-0.37,0-0.64,0.04-0.78,0.07V333.16z"/>
			<path d="M416.86,331.13h-0.02l-0.85,0.5l-0.09-0.3l0.99-0.58h0.35v5.2h-0.37V331.13z"/>
			<path d="M419.39,335.38c0.19,0.13,0.63,0.33,1.12,0.33c1.06,0,1.32-0.74,1.31-1.2c-0.01-0.86-0.76-1.22-1.53-1.22h-0.33v-0.32
				h0.34c0.58,0,1.31-0.33,1.31-1.05c0-0.48-0.27-0.93-1.01-0.93c-0.4,0-0.78,0.18-1.01,0.36l-0.15-0.28
				c0.25-0.2,0.72-0.41,1.21-0.41c0.98,0,1.35,0.62,1.35,1.21c0,0.53-0.34,1-0.97,1.24v0.02c0.65,0.13,1.17,0.62,1.17,1.37
				c0,0.78-0.55,1.54-1.76,1.54c-0.53,0-1-0.19-1.23-0.35L419.39,335.38z"/>
			<path d="M423.3,335.38c0.19,0.13,0.63,0.33,1.12,0.33c1.06,0,1.32-0.74,1.32-1.2c-0.01-0.86-0.76-1.22-1.53-1.22h-0.33v-0.32
				h0.34c0.58,0,1.31-0.33,1.31-1.05c0-0.48-0.27-0.93-1.01-0.93c-0.4,0-0.78,0.18-1.01,0.36l-0.15-0.28
				c0.25-0.2,0.72-0.41,1.21-0.41c0.98,0,1.35,0.62,1.35,1.21c0,0.53-0.34,1-0.97,1.24v0.02c0.65,0.13,1.17,0.62,1.17,1.37
				c0,0.78-0.55,1.54-1.76,1.54c-0.53,0-1-0.19-1.23-0.35L423.3,335.38z"/>
		</g>
	</g>
	<g>
		<g>
			<path d="M324.82,454.69c0.33-0.07,0.79-0.12,1.17-0.12c0.7,0,1.14,0.15,1.45,0.45c0.23,0.22,0.38,0.58,0.38,0.96
				c0,0.72-0.43,1.19-1.06,1.4v0.02c0.43,0.14,0.71,0.55,0.83,1.15c0.18,0.84,0.29,1.24,0.4,1.45h-0.4
				c-0.09-0.16-0.2-0.63-0.34-1.31c-0.17-0.78-0.5-1.13-1.21-1.16h-0.84V460h-0.38V454.69z M325.2,457.22h0.86
				c0.83,0,1.37-0.47,1.37-1.17c0-0.83-0.61-1.16-1.45-1.16c-0.37,0-0.64,0.04-0.78,0.07V457.22z"/>
			<path d="M330.1,455.19h-0.02l-0.85,0.5l-0.09-0.3l0.99-0.58h0.35v5.2h-0.37V455.19z"/>
			<path d="M335.24,455.07c-0.15,0-0.35,0.01-0.57,0.05c-1.12,0.23-1.76,1.2-1.87,2.22h0.02c0.24-0.38,0.72-0.73,1.35-0.73
				c0.96,0,1.55,0.7,1.55,1.67c0,0.91-0.56,1.81-1.62,1.81c-0.94,0-1.69-0.76-1.69-2.18c0-1.05,0.37-1.85,0.85-2.36
				c0.37-0.4,0.89-0.66,1.45-0.77c0.2-0.04,0.39-0.06,0.52-0.06L335.24,455.07z M335.32,458.31c0-0.91-0.53-1.37-1.25-1.37
				c-0.49,0-0.96,0.3-1.2,0.75c-0.05,0.09-0.09,0.19-0.09,0.31c0,1.05,0.48,1.77,1.33,1.77
				C334.83,459.77,335.32,459.19,335.32,458.31z"/>
			<path d="M339.14,455.07c-0.15,0-0.35,0.01-0.57,0.05c-1.12,0.23-1.76,1.2-1.87,2.22h0.02c0.24-0.38,0.72-0.73,1.35-0.73
				c0.96,0,1.55,0.7,1.55,1.67c0,0.91-0.56,1.81-1.62,1.81c-0.94,0-1.69-0.76-1.69-2.18c0-1.05,0.37-1.85,0.85-2.36
				c0.37-0.4,0.89-0.66,1.45-0.77c0.2-0.04,0.39-0.06,0.52-0.06L339.14,455.07z M339.23,458.31c0-0.91-0.53-1.37-1.25-1.37
				c-0.49,0-0.96,0.3-1.2,0.75c-0.05,0.09-0.09,0.19-0.09,0.31c0,1.05,0.48,1.77,1.33,1.77
				C338.73,459.77,339.23,459.19,339.23,458.31z"/>
		</g>
	</g>
</g>
<g id="key">
	<g>
		<g>
			<path d="M133.09,237.03c0-0.54-0.02-0.9-0.03-1.21h0.35l0.02,0.66h0.02c0.27-0.5,0.69-0.74,1.24-0.74c0.86,0,1.47,0.74,1.47,1.95
				c0,1.4-0.75,2.05-1.57,2.05c-0.5,0-0.9-0.25-1.12-0.64h-0.02v2.13h-0.37V237.03z M133.46,238.17c0,0.1,0.01,0.21,0.03,0.31
				c0.15,0.64,0.62,0.94,1.09,0.94c0.8,0,1.2-0.74,1.2-1.72c0-0.86-0.4-1.65-1.19-1.65c-0.5,0-0.97,0.41-1.1,0.99
				c-0.02,0.1-0.04,0.22-0.04,0.32V238.17z"/>
			<path d="M139.99,237.71c0,1.43-0.86,2.02-1.63,2.02c-0.86,0-1.56-0.71-1.56-1.98c0-1.34,0.77-2.02,1.62-2.02
				C139.31,235.74,139.99,236.46,139.99,237.71z M137.17,237.74c0,0.86,0.46,1.68,1.22,1.68c0.75,0,1.23-0.82,1.23-1.7
				c0-0.68-0.31-1.67-1.22-1.67C137.51,236.05,137.17,236.98,137.17,237.74z"/>
			<path d="M140.74,239.17c0.18,0.12,0.46,0.25,0.78,0.25c0.54,0,0.82-0.31,0.82-0.72c0-0.4-0.21-0.63-0.72-0.87
				c-0.57-0.26-0.91-0.59-0.91-1.06c0-0.56,0.44-1.02,1.11-1.02c0.33,0,0.6,0.11,0.78,0.23l-0.15,0.3c-0.14-0.1-0.35-0.22-0.68-0.22
				c-0.45,0-0.69,0.31-0.69,0.64c0,0.37,0.22,0.55,0.71,0.78c0.54,0.25,0.93,0.56,0.93,1.15c0,0.69-0.51,1.1-1.22,1.1
				c-0.34,0-0.66-0.1-0.89-0.25L140.74,239.17z"/>
			<path d="M144.11,234.75c0,0.18-0.11,0.32-0.31,0.32c-0.17,0-0.28-0.14-0.28-0.32c0-0.18,0.13-0.32,0.29-0.32
				C143.99,234.43,144.11,234.57,144.11,234.75z M143.63,239.65v-3.84H144v3.84H143.63z"/>
			<path d="M145.69,234.73v1.08h0.98v0.3h-0.98v2.53c0,0.5,0.16,0.76,0.52,0.76c0.17,0,0.29-0.02,0.37-0.05l0.04,0.29
				c-0.11,0.05-0.26,0.08-0.47,0.08c-0.26,0-0.48-0.08-0.62-0.26c-0.16-0.19-0.21-0.48-0.21-0.9v-2.44h-0.6v-0.3h0.6v-0.96
				L145.69,234.73z"/>
			<path d="M147.92,234.75c0,0.18-0.11,0.32-0.31,0.32c-0.17,0-0.28-0.14-0.28-0.32c0-0.18,0.13-0.32,0.29-0.32
				C147.81,234.43,147.92,234.57,147.92,234.75z M147.44,239.65v-3.84h0.37v3.84H147.44z"/>
			<path d="M148.92,235.82l0.81,2.4c0.12,0.33,0.23,0.66,0.31,0.97h0.02c0.09-0.31,0.2-0.64,0.32-0.97l0.81-2.4h0.39l-1.39,3.84
				h-0.32l-1.35-3.84H148.92z"/>
			<path d="M152.38,237.67c0,1.32,0.63,1.74,1.31,1.74c0.47,0,0.73-0.1,0.92-0.2l0.09,0.29c-0.16,0.09-0.52,0.23-1.06,0.23
				c-1.02,0-1.63-0.8-1.63-1.93c0-1.26,0.65-2.06,1.55-2.06c1.11,0,1.34,1.11,1.34,1.7c0,0.1,0,0.16-0.01,0.23H152.38z
				 M154.51,237.37c0.01-0.66-0.26-1.32-1-1.32c-0.72,0-1.05,0.72-1.11,1.32H154.51z"/>
			<path d="M157.44,239.65v-3.53h-0.53v-0.3h0.53v-0.23c0-0.53,0.09-1,0.39-1.31c0.23-0.24,0.54-0.33,0.8-0.33
				c0.23,0,0.41,0.06,0.52,0.12l-0.11,0.29c-0.1-0.05-0.23-0.1-0.44-0.1c-0.65,0-0.78,0.63-0.78,1.32v0.24h0.94v0.3h-0.94v3.53
				H157.44z"/>
			<path d="M162.24,237.71c0,1.43-0.86,2.02-1.63,2.02c-0.86,0-1.56-0.71-1.56-1.98c0-1.34,0.77-2.02,1.62-2.02
				C161.57,235.74,162.24,236.46,162.24,237.71z M159.42,237.74c0,0.86,0.46,1.68,1.22,1.68c0.75,0,1.23-0.82,1.23-1.7
				c0-0.68-0.31-1.67-1.22-1.67C159.77,236.05,159.42,236.98,159.42,237.74z"/>
			<path d="M163.15,236.89c0-0.35-0.02-0.74-0.03-1.07h0.34l0.02,0.73h0.02c0.15-0.44,0.52-0.81,1.01-0.81c0.04,0,0.09,0,0.13,0.01
				v0.37c-0.04-0.01-0.09-0.01-0.15-0.01c-0.52,0-0.87,0.47-0.95,1.04c-0.02,0.11-0.02,0.23-0.02,0.35v2.15h-0.37V236.89z"/>
			<path d="M168.81,239.65l-0.05-0.51h-0.02c-0.17,0.3-0.55,0.59-1.07,0.59c-0.68,0-1.04-0.5-1.04-1.06c0-0.9,0.75-1.4,2.11-1.39
				v-0.11c0-0.46-0.08-1.13-0.89-1.12c-0.29,0-0.6,0.08-0.84,0.25l-0.11-0.27c0.28-0.2,0.67-0.3,1-0.3c0.93,0,1.2,0.67,1.2,1.43
				v1.59c0,0.3,0.01,0.62,0.05,0.9H168.81z M168.73,237.6c-0.67-0.02-1.72,0.08-1.72,1.03c0,0.56,0.34,0.79,0.7,0.79
				c0.55,0,0.88-0.36,0.99-0.76c0.02-0.08,0.03-0.17,0.03-0.24V237.6z"/>
			<path d="M170.1,239.17c0.18,0.12,0.46,0.25,0.78,0.25c0.54,0,0.82-0.31,0.82-0.72c0-0.4-0.21-0.63-0.72-0.87
				c-0.57-0.26-0.91-0.59-0.91-1.06c0-0.56,0.44-1.02,1.11-1.02c0.33,0,0.6,0.11,0.78,0.23l-0.15,0.3c-0.14-0.1-0.35-0.22-0.68-0.22
				c-0.45,0-0.69,0.31-0.69,0.64c0,0.37,0.22,0.55,0.71,0.78c0.54,0.25,0.93,0.56,0.93,1.15c0,0.69-0.51,1.1-1.22,1.1
				c-0.34,0-0.66-0.1-0.89-0.25L170.1,239.17z"/>
			<path d="M172.95,239.65c0.02-0.23,0.03-0.6,0.03-0.86v-4.77h0.37v2.44h0.02c0.24-0.48,0.67-0.73,1.23-0.73
				c0.83,0,1.46,0.74,1.46,1.97c0,1.39-0.79,2.03-1.53,2.03c-0.57,0-0.95-0.27-1.19-0.73h-0.02l-0.03,0.65H172.95z M173.35,238.21
				c0,0.09,0.01,0.18,0.03,0.27c0.17,0.64,0.62,0.94,1.1,0.94c0.79,0,1.2-0.75,1.2-1.71c0-0.87-0.4-1.67-1.18-1.67
				c-0.5,0-0.97,0.41-1.11,0.99c-0.02,0.1-0.04,0.2-0.04,0.32V238.21z"/>
			<path d="M177.05,237.67c0,1.32,0.63,1.74,1.31,1.74c0.47,0,0.73-0.1,0.92-0.2l0.09,0.29c-0.16,0.09-0.52,0.23-1.06,0.23
				c-1.02,0-1.63-0.8-1.63-1.93c0-1.26,0.65-2.06,1.55-2.06c1.11,0,1.34,1.11,1.34,1.7c0,0.1,0,0.16-0.01,0.23H177.05z
				 M179.18,237.37c0.01-0.66-0.26-1.32-1-1.32c-0.72,0-1.05,0.72-1.11,1.32H179.18z"/>
			<path d="M180.31,239.17c0.18,0.12,0.46,0.25,0.78,0.25c0.54,0,0.82-0.31,0.82-0.72c0-0.4-0.21-0.63-0.72-0.87
				c-0.57-0.26-0.91-0.59-0.91-1.06c0-0.56,0.44-1.02,1.11-1.02c0.33,0,0.6,0.11,0.78,0.23l-0.15,0.3c-0.14-0.1-0.35-0.22-0.68-0.22
				c-0.45,0-0.69,0.31-0.69,0.64c0,0.37,0.22,0.55,0.71,0.78c0.54,0.25,0.93,0.56,0.93,1.15c0,0.69-0.51,1.1-1.22,1.1
				c-0.34,0-0.66-0.1-0.89-0.25L180.31,239.17z"/>
			<path d="M183.71,234.73v1.08h0.98v0.3h-0.98v2.53c0,0.5,0.16,0.76,0.52,0.76c0.17,0,0.29-0.02,0.37-0.05l0.04,0.29
				c-0.11,0.05-0.26,0.08-0.47,0.08c-0.26,0-0.48-0.08-0.62-0.26c-0.16-0.19-0.21-0.48-0.21-0.9v-2.44h-0.6v-0.3h0.6v-0.96
				L183.71,234.73z"/>
			<path d="M188.38,237.71c0,1.43-0.86,2.02-1.63,2.02c-0.86,0-1.56-0.71-1.56-1.98c0-1.34,0.77-2.02,1.62-2.02
				C187.71,235.74,188.38,236.46,188.38,237.71z M185.56,237.74c0,0.86,0.46,1.68,1.22,1.68c0.75,0,1.23-0.82,1.23-1.7
				c0-0.68-0.31-1.67-1.22-1.67C185.9,236.05,185.56,236.98,185.56,237.74z"/>
			<path d="M189.13,239.17c0.18,0.12,0.46,0.25,0.78,0.25c0.54,0,0.82-0.31,0.82-0.72c0-0.4-0.21-0.63-0.72-0.87
				c-0.57-0.26-0.91-0.59-0.91-1.06c0-0.56,0.44-1.02,1.11-1.02c0.33,0,0.6,0.11,0.78,0.23l-0.15,0.3c-0.14-0.1-0.35-0.22-0.68-0.22
				c-0.45,0-0.69,0.31-0.69,0.64c0,0.37,0.22,0.55,0.71,0.78c0.54,0.25,0.93,0.56,0.93,1.15c0,0.69-0.51,1.1-1.22,1.1
				c-0.34,0-0.66-0.1-0.89-0.25L189.13,239.17z"/>
		</g>
	</g>
	<g>
		<rect x="115.39" y="249.75" class="st11" width="12.27" height="12.27"/>
		<path class="st2" d="M127.54,249.87v12.02h-12.02v-12.02H127.54 M127.79,249.62h-12.52v12.52h12.52V249.62L127.79,249.62z"/>
	</g>
	<g>
		<g>
			<path d="M133.09,255.3c0-0.39-0.02-0.62-0.03-0.91h0.34l0.02,0.63h0.02c0.19-0.4,0.62-0.71,1.18-0.71c0.38,0,1.2,0.21,1.2,1.51
				v2.41h-0.37v-2.34c0-0.65-0.22-1.26-0.93-1.26c-0.47,0-0.88,0.35-1.01,0.86c-0.02,0.1-0.04,0.22-0.04,0.34v2.4h-0.37V255.3z"/>
			<path d="M139.91,256.29c0,1.43-0.86,2.02-1.63,2.02c-0.86,0-1.56-0.71-1.56-1.98c0-1.34,0.77-2.02,1.62-2.02
				C139.23,254.31,139.91,255.04,139.91,256.29z M137.09,256.32c0,0.86,0.46,1.68,1.22,1.68c0.75,0,1.23-0.82,1.23-1.7
				c0-0.68-0.31-1.67-1.22-1.67C137.43,254.62,137.09,255.55,137.09,256.32z"/>
			<path d="M140.81,255.3c0-0.39-0.02-0.62-0.03-0.91h0.34l0.02,0.63h0.02c0.19-0.4,0.62-0.71,1.18-0.71c0.38,0,1.2,0.21,1.2,1.51
				v2.41h-0.37v-2.34c0-0.65-0.22-1.26-0.93-1.26c-0.47,0-0.88,0.35-1.01,0.86c-0.02,0.1-0.04,0.22-0.04,0.34v2.4h-0.37V255.3z"/>
			<path d="M146.24,255.93v0.32h-1.88v-0.32H146.24z"/>
			<path d="M149.82,252.6v4.77c0,0.25,0.02,0.63,0.03,0.86h-0.33l-0.03-0.66h-0.02c-0.17,0.38-0.57,0.74-1.2,0.74
				c-0.82,0-1.48-0.73-1.48-1.95c0-1.31,0.71-2.05,1.54-2.05c0.54,0,0.92,0.27,1.1,0.62h0.02v-2.34H149.82z M149.45,255.89
				c0-0.1-0.01-0.23-0.03-0.33c-0.1-0.51-0.51-0.94-1.06-0.94c-0.76,0-1.19,0.76-1.19,1.71c0,0.86,0.37,1.67,1.17,1.67
				c0.45,0,0.91-0.29,1.08-0.96c0.02-0.09,0.03-0.19,0.03-0.3V255.89z"/>
			<path d="M151.09,256.24c0,1.32,0.63,1.74,1.31,1.74c0.47,0,0.73-0.1,0.92-0.2l0.09,0.29c-0.16,0.09-0.52,0.23-1.06,0.23
				c-1.02,0-1.63-0.8-1.63-1.93c0-1.26,0.65-2.06,1.55-2.06c1.11,0,1.34,1.11,1.34,1.7c0,0.1,0,0.16-0.01,0.23H151.09z
				 M153.22,255.95c0.01-0.66-0.26-1.32-1-1.32c-0.72,0-1.05,0.72-1.11,1.32H153.22z"/>
			<path d="M155.02,253.31v1.08H156v0.3h-0.98v2.53c0,0.5,0.16,0.76,0.52,0.76c0.17,0,0.29-0.02,0.37-0.05l0.04,0.29
				c-0.11,0.05-0.26,0.08-0.47,0.08c-0.26,0-0.48-0.08-0.62-0.26c-0.16-0.19-0.21-0.48-0.21-0.9v-2.44h-0.6v-0.3h0.6v-0.96
				L155.02,253.31z"/>
			<path d="M156.85,256.24c0,1.32,0.63,1.74,1.31,1.74c0.47,0,0.73-0.1,0.92-0.2l0.09,0.29c-0.16,0.09-0.52,0.23-1.06,0.23
				c-1.02,0-1.63-0.8-1.63-1.93c0-1.26,0.65-2.06,1.55-2.06c1.11,0,1.34,1.11,1.34,1.7c0,0.1,0,0.16-0.01,0.23H156.85z
				 M158.98,255.95c0.01-0.66-0.26-1.32-1-1.32c-0.72,0-1.05,0.72-1.11,1.32H158.98z"/>
			<path d="M162.63,258.08c-0.16,0.09-0.51,0.22-0.97,0.22c-1,0-1.67-0.77-1.67-1.96c0-1.17,0.72-2.03,1.8-2.03
				c0.39,0,0.72,0.11,0.86,0.21l-0.13,0.31c-0.16-0.09-0.41-0.2-0.78-0.2c-0.93,0-1.38,0.82-1.38,1.69c0,1.01,0.56,1.65,1.36,1.65
				c0.37,0,0.63-0.1,0.82-0.19L162.63,258.08z"/>
			<path d="M163.97,253.31v1.08h0.98v0.3h-0.98v2.53c0,0.5,0.16,0.76,0.52,0.76c0.17,0,0.29-0.02,0.37-0.05l0.04,0.29
				c-0.11,0.05-0.26,0.08-0.47,0.08c-0.26,0-0.48-0.08-0.62-0.26c-0.16-0.19-0.21-0.48-0.21-0.9v-2.44H163v-0.3h0.6v-0.96
				L163.97,253.31z"/>
			<path d="M167.36,258.23v-3.53h-0.53v-0.3h0.53v-0.23c0-0.53,0.09-1,0.39-1.31c0.23-0.24,0.54-0.33,0.8-0.33
				c0.23,0,0.41,0.06,0.52,0.12l-0.11,0.29c-0.1-0.05-0.23-0.1-0.44-0.1c-0.65,0-0.78,0.63-0.78,1.32v0.24h0.94v0.3h-0.94v3.53
				H167.36z"/>
			<path d="M172.16,256.29c0,1.43-0.86,2.02-1.63,2.02c-0.86,0-1.56-0.71-1.56-1.98c0-1.34,0.77-2.02,1.62-2.02
				C171.49,254.31,172.16,255.04,172.16,256.29z M169.34,256.32c0,0.86,0.46,1.68,1.22,1.68c0.75,0,1.23-0.82,1.23-1.7
				c0-0.68-0.31-1.67-1.22-1.67C169.69,254.62,169.34,255.55,169.34,256.32z"/>
			<path d="M173.06,255.46c0-0.35-0.02-0.74-0.03-1.07h0.34l0.02,0.73h0.02c0.15-0.44,0.52-0.81,1.01-0.81c0.04,0,0.09,0,0.13,0.01
				v0.37c-0.04-0.01-0.09-0.01-0.15-0.01c-0.52,0-0.87,0.47-0.95,1.04c-0.02,0.11-0.02,0.23-0.02,0.35v2.15h-0.37V255.46z"/>
			<path d="M178.73,258.23l-0.05-0.51h-0.02c-0.17,0.3-0.55,0.59-1.07,0.59c-0.68,0-1.04-0.5-1.04-1.06c0-0.9,0.75-1.4,2.11-1.39
				v-0.11c0-0.46-0.08-1.13-0.89-1.12c-0.29,0-0.6,0.08-0.84,0.25l-0.11-0.27c0.28-0.2,0.67-0.3,1-0.3c0.93,0,1.2,0.67,1.2,1.43
				v1.59c0,0.3,0.01,0.62,0.05,0.9H178.73z M178.65,256.18c-0.67-0.02-1.72,0.08-1.72,1.03c0,0.56,0.34,0.79,0.7,0.79
				c0.55,0,0.88-0.36,0.99-0.76c0.02-0.08,0.03-0.17,0.03-0.24V256.18z"/>
			<path d="M180.02,257.74c0.18,0.12,0.46,0.25,0.78,0.25c0.54,0,0.82-0.31,0.82-0.72c0-0.4-0.21-0.63-0.72-0.87
				c-0.57-0.26-0.91-0.59-0.91-1.06c0-0.56,0.44-1.02,1.11-1.02c0.33,0,0.6,0.11,0.78,0.23l-0.15,0.3c-0.14-0.1-0.35-0.22-0.68-0.22
				c-0.45,0-0.69,0.31-0.69,0.64c0,0.37,0.22,0.55,0.71,0.78c0.54,0.25,0.93,0.56,0.93,1.15c0,0.69-0.51,1.1-1.22,1.1
				c-0.34,0-0.66-0.1-0.89-0.25L180.02,257.74z"/>
			<path d="M182.87,258.23c0.02-0.23,0.03-0.6,0.03-0.86v-4.77h0.37v2.44h0.02c0.24-0.48,0.67-0.73,1.23-0.73
				c0.83,0,1.46,0.74,1.46,1.97c0,1.39-0.79,2.03-1.53,2.03c-0.57,0-0.95-0.27-1.19-0.73h-0.02l-0.03,0.65H182.87z M183.27,256.79
				c0,0.09,0.01,0.18,0.03,0.27c0.17,0.64,0.62,0.94,1.1,0.94c0.79,0,1.2-0.75,1.2-1.71c0-0.87-0.4-1.67-1.18-1.67
				c-0.5,0-0.97,0.41-1.11,0.99c-0.02,0.1-0.04,0.2-0.04,0.32V256.79z"/>
			<path d="M186.97,256.24c0,1.32,0.63,1.74,1.31,1.74c0.47,0,0.73-0.1,0.92-0.2l0.09,0.29c-0.16,0.09-0.52,0.23-1.06,0.23
				c-1.02,0-1.63-0.8-1.63-1.93c0-1.26,0.65-2.06,1.55-2.06c1.11,0,1.34,1.11,1.34,1.7c0,0.1,0,0.16-0.01,0.23H186.97z
				 M189.1,255.95c0.01-0.66-0.26-1.32-1-1.32c-0.72,0-1.05,0.72-1.11,1.32H189.1z"/>
			<path d="M190.23,257.74c0.18,0.12,0.46,0.25,0.78,0.25c0.54,0,0.82-0.31,0.82-0.72c0-0.4-0.21-0.63-0.72-0.87
				c-0.57-0.26-0.91-0.59-0.91-1.06c0-0.56,0.44-1.02,1.11-1.02c0.33,0,0.6,0.11,0.78,0.23l-0.15,0.3c-0.14-0.1-0.35-0.22-0.68-0.22
				c-0.45,0-0.69,0.31-0.69,0.64c0,0.37,0.22,0.55,0.71,0.78c0.54,0.25,0.93,0.56,0.93,1.15c0,0.69-0.51,1.1-1.22,1.1
				c-0.34,0-0.66-0.1-0.89-0.25L190.23,257.74z"/>
			<path d="M193.63,253.31v1.08h0.98v0.3h-0.98v2.53c0,0.5,0.16,0.76,0.52,0.76c0.17,0,0.29-0.02,0.37-0.05l0.04,0.29
				c-0.11,0.05-0.26,0.08-0.47,0.08c-0.26,0-0.48-0.08-0.62-0.26c-0.16-0.19-0.21-0.48-0.21-0.9v-2.44h-0.6v-0.3h0.6v-0.96
				L193.63,253.31z"/>
			<path d="M198.3,256.29c0,1.43-0.86,2.02-1.63,2.02c-0.86,0-1.56-0.71-1.56-1.98c0-1.34,0.77-2.02,1.62-2.02
				C197.63,254.31,198.3,255.04,198.3,256.29z M195.48,256.32c0,0.86,0.46,1.68,1.22,1.68c0.75,0,1.23-0.82,1.23-1.7
				c0-0.68-0.31-1.67-1.22-1.67C195.82,254.62,195.48,255.55,195.48,256.32z"/>
			<path d="M199.05,257.74c0.18,0.12,0.46,0.25,0.78,0.25c0.54,0,0.82-0.31,0.82-0.72c0-0.4-0.21-0.63-0.72-0.87
				c-0.57-0.26-0.91-0.59-0.91-1.06c0-0.56,0.44-1.02,1.11-1.02c0.33,0,0.6,0.11,0.78,0.23l-0.15,0.3c-0.14-0.1-0.35-0.22-0.68-0.22
				c-0.45,0-0.69,0.31-0.69,0.64c0,0.37,0.22,0.55,0.71,0.78c0.54,0.25,0.93,0.56,0.93,1.15c0,0.69-0.51,1.1-1.22,1.1
				c-0.34,0-0.66-0.1-0.89-0.25L199.05,257.74z"/>
		</g>
	</g>
	<g>
		<g>
			<path d="M132.94,276.72c0.18,0.12,0.46,0.25,0.78,0.25c0.54,0,0.82-0.31,0.82-0.72c0-0.4-0.21-0.63-0.72-0.87
				c-0.57-0.26-0.91-0.59-0.91-1.06c0-0.56,0.44-1.02,1.11-1.02c0.33,0,0.6,0.11,0.78,0.23l-0.15,0.3c-0.14-0.1-0.35-0.22-0.68-0.22
				c-0.45,0-0.69,0.31-0.69,0.64c0,0.37,0.22,0.55,0.71,0.78c0.54,0.25,0.93,0.56,0.93,1.15c0,0.69-0.51,1.1-1.22,1.1
				c-0.34,0-0.66-0.1-0.89-0.25L132.94,276.72z"/>
			<path d="M137.71,277.21l-0.05-0.51h-0.02c-0.17,0.3-0.55,0.59-1.07,0.59c-0.68,0-1.04-0.5-1.04-1.06c0-0.9,0.75-1.4,2.11-1.39
				v-0.11c0-0.46-0.08-1.13-0.89-1.12c-0.29,0-0.6,0.08-0.84,0.25l-0.11-0.27c0.28-0.2,0.67-0.3,1-0.3c0.93,0,1.2,0.67,1.2,1.43
				v1.59c0,0.3,0.01,0.62,0.05,0.9H137.71z M137.63,275.15c-0.67-0.02-1.72,0.08-1.72,1.03c0,0.56,0.34,0.79,0.7,0.79
				c0.55,0,0.88-0.36,0.99-0.76c0.02-0.08,0.03-0.17,0.03-0.24V275.15z"/>
			<path d="M139.16,274.28c0-0.39-0.02-0.62-0.03-0.91h0.34l0.02,0.62h0.02c0.22-0.41,0.55-0.7,1.12-0.7c0.47,0,0.85,0.29,1.01,0.77
				h0.02c0.11-0.22,0.24-0.39,0.38-0.51c0.22-0.18,0.45-0.27,0.8-0.27c0.39,0,1.14,0.23,1.14,1.55v2.37h-0.37v-2.31
				c0-0.77-0.26-1.3-0.9-1.3c-0.43,0-0.77,0.33-0.91,0.75c-0.03,0.12-0.05,0.24-0.05,0.38v2.47h-0.37v-2.46
				c0-0.64-0.26-1.15-0.86-1.15c-0.45,0-0.83,0.38-0.95,0.85c-0.03,0.11-0.05,0.24-0.05,0.36v2.39h-0.37V274.28z"/>
			<path d="M145.14,274.58c0-0.54-0.02-0.9-0.03-1.21h0.35l0.02,0.66h0.02c0.27-0.5,0.69-0.74,1.24-0.74c0.86,0,1.47,0.74,1.47,1.95
				c0,1.4-0.75,2.05-1.57,2.05c-0.5,0-0.9-0.25-1.12-0.64h-0.02v2.13h-0.37V274.58z M145.51,275.73c0,0.1,0.01,0.21,0.03,0.31
				c0.15,0.64,0.62,0.94,1.09,0.94c0.8,0,1.2-0.74,1.2-1.72c0-0.86-0.4-1.65-1.19-1.65c-0.5,0-0.97,0.41-1.1,0.99
				c-0.02,0.1-0.04,0.22-0.04,0.32V275.73z"/>
			<path d="M149.12,271.57h0.37v5.63h-0.37V271.57z"/>
			<path d="M150.8,275.22c0,1.32,0.63,1.74,1.31,1.74c0.47,0,0.73-0.1,0.92-0.2l0.09,0.29c-0.16,0.09-0.52,0.23-1.06,0.23
				c-1.02,0-1.63-0.8-1.63-1.93c0-1.26,0.65-2.06,1.55-2.06c1.11,0,1.34,1.11,1.34,1.7c0,0.1,0,0.16-0.01,0.23H150.8z
				 M152.93,274.92c0.01-0.66-0.26-1.32-1-1.32c-0.72,0-1.05,0.72-1.11,1.32H152.93z"/>
			<path d="M156.96,271.57v4.77c0,0.25,0.02,0.63,0.03,0.86h-0.33l-0.03-0.66h-0.02c-0.17,0.38-0.57,0.74-1.2,0.74
				c-0.82,0-1.48-0.73-1.48-1.95c0-1.31,0.71-2.05,1.54-2.05c0.54,0,0.92,0.27,1.1,0.62h0.02v-2.34H156.96z M156.59,274.87
				c0-0.1-0.01-0.23-0.03-0.33c-0.1-0.51-0.51-0.94-1.06-0.94c-0.76,0-1.19,0.76-1.19,1.71c0,0.86,0.37,1.67,1.17,1.67
				c0.45,0,0.91-0.29,1.08-0.96c0.02-0.09,0.03-0.19,0.03-0.3V274.87z"/>
			<path d="M159.74,271.57h0.37v5.63h-0.37V271.57z"/>
			<path d="M164.25,275.26c0,1.43-0.86,2.02-1.63,2.02c-0.86,0-1.56-0.71-1.56-1.98c0-1.34,0.77-2.02,1.62-2.02
				C163.58,273.29,164.25,274.02,164.25,275.26z M161.43,275.3c0,0.86,0.46,1.68,1.22,1.68c0.75,0,1.23-0.82,1.23-1.7
				c0-0.68-0.31-1.67-1.22-1.67C161.78,273.6,161.43,274.53,161.43,275.3z"/>
			<path d="M167.52,277.06c-0.16,0.09-0.51,0.22-0.97,0.22c-1,0-1.67-0.77-1.67-1.96c0-1.17,0.72-2.03,1.8-2.03
				c0.39,0,0.72,0.11,0.86,0.21l-0.13,0.31c-0.16-0.09-0.41-0.2-0.78-0.2c-0.93,0-1.38,0.82-1.38,1.69c0,1.01,0.56,1.65,1.36,1.65
				c0.37,0,0.63-0.1,0.82-0.19L167.52,277.06z"/>
			<path d="M170.23,277.21l-0.05-0.51h-0.02c-0.17,0.3-0.55,0.59-1.07,0.59c-0.68,0-1.04-0.5-1.04-1.06c0-0.9,0.75-1.4,2.11-1.39
				v-0.11c0-0.46-0.08-1.13-0.89-1.12c-0.29,0-0.6,0.08-0.84,0.25l-0.11-0.27c0.28-0.2,0.67-0.3,1-0.3c0.93,0,1.2,0.67,1.2,1.43
				v1.59c0,0.3,0.01,0.62,0.05,0.9H170.23z M170.15,275.15c-0.67-0.02-1.72,0.08-1.72,1.03c0,0.56,0.34,0.79,0.7,0.79
				c0.55,0,0.88-0.36,0.99-0.76c0.02-0.08,0.03-0.17,0.03-0.24V275.15z"/>
			<path d="M172.18,272.29v1.08h0.98v0.3h-0.98v2.53c0,0.5,0.16,0.76,0.52,0.76c0.17,0,0.29-0.02,0.37-0.05l0.04,0.29
				c-0.11,0.05-0.26,0.08-0.47,0.08c-0.26,0-0.48-0.08-0.62-0.26c-0.16-0.19-0.21-0.48-0.21-0.9v-2.44h-0.6v-0.3h0.6v-0.96
				L172.18,272.29z"/>
			<path d="M174.41,272.31c0,0.18-0.11,0.32-0.31,0.32c-0.17,0-0.28-0.14-0.28-0.32c0-0.18,0.13-0.32,0.29-0.32
				C174.3,271.99,174.41,272.13,174.41,272.31z M173.93,277.21v-3.84h0.37v3.84H173.93z"/>
			<path d="M178.41,275.26c0,1.43-0.86,2.02-1.63,2.02c-0.86,0-1.56-0.71-1.56-1.98c0-1.34,0.77-2.02,1.62-2.02
				C177.74,273.29,178.41,274.02,178.41,275.26z M175.59,275.3c0,0.86,0.46,1.68,1.22,1.68c0.75,0,1.23-0.82,1.23-1.7
				c0-0.68-0.31-1.67-1.22-1.67C175.94,273.6,175.59,274.53,175.59,275.3z"/>
			<path d="M179.32,274.28c0-0.39-0.02-0.62-0.03-0.91h0.34l0.02,0.63h0.02c0.19-0.4,0.62-0.71,1.18-0.71c0.38,0,1.2,0.21,1.2,1.51
				v2.41h-0.37v-2.34c0-0.65-0.22-1.26-0.93-1.26c-0.47,0-0.88,0.35-1.01,0.86c-0.02,0.1-0.04,0.22-0.04,0.34v2.4h-0.37V274.28z"/>
		</g>
	</g>
	<path class="st19" d="M122.95,279.16h-7.38c-2.29,0-4.16-1.87-4.16-4.16l0,0c0-2.29,1.87-4.16,4.16-4.16h7.38
		c2.29,0,4.16,1.87,4.16,4.16l0,0C127.12,277.29,125.24,279.16,122.95,279.16z"/>
	<line class="st18" x1="127.12" y1="275.28" x2="129.64" y2="275.28"/>
	<g>
		<g>
			<path class="st20" d="M115.14,274.94c0,1.05-0.34,1.48-0.78,1.48c-0.46,0-0.74-0.53-0.74-1.47c0-0.97,0.3-1.48,0.79-1.48
				C114.89,273.47,115.14,274.02,115.14,274.94z M113.98,274.95c0,0.7,0.12,1.18,0.41,1.18c0.28,0,0.4-0.49,0.4-1.18
				c0-0.68-0.11-1.18-0.4-1.18C114.1,273.76,113.98,274.25,113.98,274.95z"/>
			<path class="st20" d="M116.41,275.1v0.26h-1v-0.26H116.41z"/>
			<path class="st20" d="M117.41,273.85L117.41,273.85l-0.51,0.28l-0.07-0.27l0.63-0.36h0.29v2.89h-0.35V273.85z"/>
			<path class="st20" d="M118.46,276.39v-0.22l0.25-0.33c0.36-0.48,0.78-1.02,0.78-1.56c0-0.32-0.14-0.52-0.42-0.52
				c-0.22,0-0.36,0.11-0.43,0.16l-0.09-0.26c0.1-0.08,0.31-0.2,0.58-0.2c0.5,0,0.71,0.35,0.71,0.79c0,0.54-0.37,1.07-0.74,1.56
				l-0.2,0.26v0.01h0.99v0.3H118.46z"/>
			<path class="st20" d="M120.28,276.02c0.09,0.06,0.25,0.12,0.43,0.12c0.31,0,0.52-0.22,0.52-0.58c0-0.38-0.25-0.6-0.6-0.6h-0.08
				v-0.26h0.07c0.21,0,0.54-0.16,0.54-0.51c0-0.29-0.16-0.44-0.39-0.44c-0.15,0-0.28,0.07-0.37,0.14l-0.08-0.26
				c0.11-0.08,0.31-0.17,0.54-0.17c0.42,0,0.66,0.29,0.66,0.66c0,0.29-0.16,0.54-0.44,0.68v0.01c0.27,0.07,0.52,0.3,0.52,0.76
				c0,0.47-0.31,0.85-0.86,0.85c-0.19,0-0.4-0.05-0.52-0.13L120.28,276.02z"/>
			<path class="st20" d="M122.98,275.1v0.26h-1v-0.26H122.98z"/>
			<path class="st20" d="M123.4,273.44c0.15-0.04,0.32-0.06,0.52-0.06c0.28,0,0.52,0.06,0.68,0.21c0.13,0.12,0.2,0.3,0.2,0.51
				c0,0.3-0.17,0.55-0.48,0.66v0.01c0.36,0.09,0.57,0.37,0.57,0.76c0,0.25-0.08,0.45-0.22,0.59c-0.18,0.19-0.46,0.27-0.82,0.27
				c-0.23,0-0.37-0.01-0.46-0.03V273.44z M123.75,274.67h0.16c0.29,0,0.54-0.22,0.54-0.53c0-0.28-0.13-0.49-0.51-0.49
				c-0.08,0-0.15,0.01-0.19,0.02V274.67z M123.75,276.12c0.04,0.01,0.1,0.02,0.18,0.02c0.37,0,0.6-0.21,0.6-0.59
				c0-0.41-0.3-0.61-0.63-0.61h-0.15V276.12z"/>
		</g>
	</g>
	<g>
		<rect x="115.39" y="231.61" class="st9" width="12.27" height="12.27"/>
		<path class="st1" d="M127.54,231.74v12.02h-12.02v-12.02H127.54 M127.79,231.49h-12.52v12.52h12.52V231.49L127.79,231.49z"/>
	</g>
</g>
</svg>